<svg xmlns="http://www.w3.org/2000/svg" xmlns:xlink="http://www.w3.org/1999/xlink" width="125" zoomAndPan="magnify" viewBox="0 0 93.75 56.249996" height="75" preserveAspectRatio="xMidYMid meet" version="1.0"><defs><g/><clipPath id="id1"><path d="M 9.324219 22 L 22.683594 22 L 22.683594 30.820312 L 9.324219 30.820312 Z M 9.324219 22 " clip-rule="nonzero"/></clipPath><clipPath id="id2"><path d="M 10 21.175781 L 22 21.175781 L 22 30 L 10 30 Z M 10 21.175781 " clip-rule="nonzero"/></clipPath><clipPath id="id3"><path d="M 9.324219 21.175781 L 22.683594 21.175781 L 22.683594 30.820312 L 9.324219 30.820312 Z M 9.324219 21.175781 " clip-rule="nonzero"/></clipPath></defs><g clip-path="url(#id1)"><path fill="rgb(90.19928%, 48.629761%, 42.349243%)" d="M 9.804688 22.011719 L 9.804688 30.027344 L 22.164062 30.027344 L 22.164062 22.011719 L 21.914062 22.011719 L 21.914062 29.535156 C 21.914062 29.574219 21.875 29.601562 21.839844 29.589844 C 20.527344 29.238281 19.160156 29.167969 17.8125 29.289062 C 17.203125 29.34375 16.589844 29.425781 16 29.589844 C 15.992188 29.59375 15.984375 29.59375 15.976562 29.589844 C 15.96875 29.589844 15.960938 29.589844 15.953125 29.589844 C 15.363281 29.425781 14.742188 29.34375 14.140625 29.289062 C 12.796875 29.167969 11.421875 29.238281 10.113281 29.589844 C 10.074219 29.601562 10.035156 29.574219 10.035156 29.535156 L 10.035156 22.011719 Z M 9.804688 22.011719 " fill-opacity="1" fill-rule="nonzero"/></g><g clip-path="url(#id2)"><path fill="rgb(100%, 100%, 100%)" d="M 21.792969 22.019531 C 21.714844 22.003906 21.605469 21.933594 21.539062 21.910156 C 21.332031 21.828125 21.117188 21.757812 20.90625 21.699219 L 20.902344 21.699219 C 20.890625 21.699219 20.878906 21.695312 20.871094 21.691406 C 19.277344 21.246094 17.554688 21.296875 16.042969 22.011719 L 16.042969 29.457031 C 16.621094 29.308594 17.21875 29.230469 17.8125 29.175781 C 19.144531 29.050781 20.5 29.125 21.796875 29.457031 L 21.796875 22.058594 C 21.796875 22.050781 21.792969 22.035156 21.792969 22.019531 Z M 15.078125 21.691406 C 13.65625 21.253906 12.105469 21.332031 10.6875 21.804688 C 10.527344 21.859375 10.371094 21.917969 10.214844 21.984375 C 10.199219 21.992188 10.179688 22.003906 10.160156 22.011719 C 10.167969 22.058594 10.152344 22.136719 10.152344 22.171875 L 10.152344 29.457031 C 11.449219 29.125 12.804688 29.050781 14.136719 29.175781 C 14.730469 29.230469 15.328125 29.308594 15.90625 29.457031 L 15.90625 22.011719 C 15.644531 21.882812 15.371094 21.78125 15.097656 21.695312 C 15.089844 21.695312 15.085938 21.691406 15.078125 21.691406 Z M 15.078125 21.691406 " fill-opacity="1" fill-rule="nonzero"/></g><g clip-path="url(#id3)"><path fill="rgb(38.819885%, 78.42865%, 87.449646%)" d="M 16.480469 21.695312 L 15.460938 21.695312 C 15.636719 21.757812 15.804688 21.828125 15.972656 21.914062 C 16.140625 21.832031 16.308594 21.761719 16.480469 21.695312 Z M 21.320312 21.695312 C 21.488281 21.753906 21.660156 21.816406 21.824219 21.894531 C 21.828125 21.894531 21.828125 21.894531 21.832031 21.894531 L 22.222656 21.894531 C 22.253906 21.894531 22.28125 21.921875 22.28125 21.953125 L 22.28125 30.085938 C 22.28125 30.117188 22.253906 30.144531 22.222656 30.144531 L 9.746094 30.144531 C 9.714844 30.144531 9.6875 30.117188 9.6875 30.085938 L 9.6875 21.953125 C 9.6875 21.921875 9.714844 21.894531 9.746094 21.894531 L 10.109375 21.894531 C 10.113281 21.894531 10.117188 21.894531 10.121094 21.894531 C 10.238281 21.839844 10.359375 21.792969 10.472656 21.75 C 10.527344 21.730469 10.582031 21.710938 10.636719 21.695312 L 9.453125 21.695312 L 9.453125 30.382812 L 15.28125 30.382812 C 15.285156 30.382812 15.289062 30.382812 15.296875 30.382812 C 15.316406 30.382812 15.335938 30.398438 15.34375 30.425781 C 15.414062 30.71875 15.738281 30.660156 15.96875 30.660156 C 16.210938 30.660156 16.519531 30.722656 16.628906 30.425781 C 16.636719 30.40625 16.652344 30.394531 16.664062 30.390625 C 16.671875 30.386719 16.679688 30.382812 16.691406 30.382812 L 22.550781 30.382812 L 22.550781 21.695312 Z M 21.320312 21.695312 " fill-opacity="1" fill-rule="nonzero"/><path fill="rgb(45.489502%, 38.42926%, 26.669312%)" d="M 22.609375 21.578125 L 20.929688 21.578125 C 20.847656 21.554688 20.765625 21.535156 20.679688 21.511719 C 19.765625 21.289062 18.808594 21.214844 17.875 21.34375 C 17.519531 21.390625 17.167969 21.46875 16.824219 21.582031 L 15.113281 21.582031 C 13.785156 21.175781 12.355469 21.203125 11.019531 21.582031 L 9.398438 21.582031 C 9.367188 21.578125 9.339844 21.605469 9.339844 21.636719 L 9.339844 30.441406 C 9.339844 30.472656 9.367188 30.5 9.398438 30.5 L 15.242188 30.5 C 15.347656 30.820312 15.691406 30.777344 15.964844 30.777344 C 16.265625 30.777344 16.574219 30.820312 16.71875 30.5 L 22.609375 30.5 C 22.640625 30.5 22.667969 30.472656 22.667969 30.441406 L 22.667969 21.636719 C 22.667969 21.605469 22.640625 21.578125 22.609375 21.578125 Z M 20.875 21.6875 C 20.882812 21.691406 20.894531 21.695312 20.90625 21.695312 L 20.910156 21.695312 C 21.121094 21.753906 21.335938 21.824219 21.542969 21.90625 C 21.609375 21.929688 21.714844 22 21.796875 22.015625 C 21.796875 22.03125 21.800781 22.046875 21.800781 22.054688 L 21.800781 29.453125 C 20.503906 29.121094 19.148438 29.046875 17.816406 29.171875 C 17.222656 29.226562 16.625 29.304688 16.046875 29.453125 L 16.046875 22.011719 C 17.554688 21.296875 19.277344 21.246094 20.875 21.6875 Z M 10.109375 29.59375 C 11.417969 29.242188 12.789062 29.171875 14.136719 29.292969 C 14.742188 29.347656 15.359375 29.429688 15.949219 29.59375 C 15.957031 29.597656 15.964844 29.597656 15.972656 29.59375 C 15.980469 29.59375 15.988281 29.59375 15.996094 29.59375 C 16.585938 29.429688 17.203125 29.347656 17.808594 29.292969 C 19.152344 29.171875 20.523438 29.242188 21.835938 29.59375 C 21.871094 29.601562 21.910156 29.574219 21.910156 29.539062 L 21.910156 22.011719 L 22.160156 22.011719 L 22.160156 30.027344 L 9.804688 30.027344 L 9.804688 22.011719 L 10.035156 22.011719 L 10.035156 29.535156 C 10.035156 29.574219 10.074219 29.601562 10.109375 29.59375 Z M 10.128906 22.023438 C 10.132812 22.023438 10.140625 22.023438 10.144531 22.019531 C 10.140625 22.019531 10.136719 22.023438 10.128906 22.023438 Z M 16.480469 21.695312 C 16.308594 21.757812 16.140625 21.832031 15.972656 21.914062 C 15.804688 21.832031 15.636719 21.761719 15.460938 21.695312 Z M 15.078125 21.691406 C 15.082031 21.695312 15.089844 21.695312 15.09375 21.695312 C 15.367188 21.78125 15.640625 21.882812 15.902344 22.011719 L 15.902344 29.457031 C 15.324219 29.308594 14.722656 29.230469 14.132812 29.175781 C 12.800781 29.050781 11.445312 29.125 10.148438 29.457031 L 10.148438 22.171875 C 10.148438 22.140625 10.164062 22.058594 10.15625 22.011719 C 10.175781 22.003906 10.195312 21.988281 10.210938 21.984375 C 10.367188 21.917969 10.523438 21.855469 10.683594 21.804688 C 12.105469 21.332031 13.65625 21.253906 15.078125 21.691406 Z M 22.550781 30.382812 L 16.691406 30.382812 C 16.679688 30.382812 16.671875 30.386719 16.664062 30.390625 C 16.652344 30.394531 16.636719 30.40625 16.628906 30.425781 C 16.515625 30.71875 16.210938 30.660156 15.96875 30.660156 C 15.742188 30.660156 15.414062 30.71875 15.34375 30.425781 C 15.335938 30.398438 15.316406 30.386719 15.296875 30.382812 C 15.292969 30.382812 15.289062 30.382812 15.28125 30.382812 L 9.453125 30.382812 L 9.453125 21.695312 L 10.640625 21.695312 C 10.585938 21.714844 10.53125 21.730469 10.476562 21.75 C 10.359375 21.792969 10.238281 21.839844 10.125 21.894531 C 10.121094 21.894531 10.117188 21.894531 10.113281 21.894531 L 9.75 21.894531 C 9.714844 21.894531 9.6875 21.921875 9.6875 21.953125 L 9.6875 30.085938 C 9.6875 30.117188 9.714844 30.144531 9.746094 30.144531 L 22.222656 30.144531 C 22.253906 30.144531 22.28125 30.117188 22.28125 30.085938 L 22.28125 21.953125 C 22.28125 21.921875 22.253906 21.894531 22.222656 21.894531 L 21.832031 21.894531 C 21.828125 21.894531 21.828125 21.894531 21.824219 21.894531 C 21.660156 21.816406 21.488281 21.75 21.320312 21.695312 L 22.550781 21.695312 Z M 22.550781 30.382812 " fill-opacity="1" fill-rule="nonzero"/></g><g fill="rgb(100%, 0%, 100%)" fill-opacity="1"><g transform="translate(25.175681, 29.960929)"><g><path d="M 2.828125 0 L 1.171875 0 C 1.023438 0 0.921875 -0.03125 0.859375 -0.09375 C 0.796875 -0.15625 0.765625 -0.257812 0.765625 -0.40625 L 0.765625 -7.59375 C 0.765625 -7.738281 0.796875 -7.84375 0.859375 -7.90625 C 0.921875 -7.96875 1.023438 -8 1.171875 -8 L 2.328125 -8 C 2.460938 -8 2.578125 -7.972656 2.671875 -7.921875 C 2.773438 -7.878906 2.878906 -7.804688 2.984375 -7.703125 L 5.125 -5.234375 L 5.125 -7.59375 C 5.125 -7.738281 5.15625 -7.84375 5.21875 -7.90625 C 5.289062 -7.96875 5.394531 -8 5.53125 -8 L 7.203125 -8 C 7.335938 -8 7.4375 -7.96875 7.5 -7.90625 C 7.5625 -7.84375 7.59375 -7.738281 7.59375 -7.59375 L 7.59375 -0.40625 C 7.59375 -0.257812 7.5625 -0.15625 7.5 -0.09375 C 7.4375 -0.03125 7.335938 0 7.203125 0 L 5.53125 0 C 5.394531 0 5.289062 -0.03125 5.21875 -0.09375 C 5.15625 -0.15625 5.125 -0.257812 5.125 -0.40625 L 5.125 -1.765625 L 3.234375 -4.0625 L 3.234375 -0.40625 C 3.234375 -0.257812 3.203125 -0.15625 3.140625 -0.09375 C 3.078125 -0.03125 2.972656 0 2.828125 0 Z M 2.828125 0 "/></g></g></g><g fill="rgb(100%, 0%, 100%)" fill-opacity="1"><g transform="translate(33.537278, 29.960929)"><g><path d="M 6.328125 0 L 1.171875 0 C 1.023438 0 0.921875 -0.03125 0.859375 -0.09375 C 0.796875 -0.15625 0.765625 -0.257812 0.765625 -0.40625 L 0.765625 -7.59375 C 0.765625 -7.738281 0.796875 -7.84375 0.859375 -7.90625 C 0.921875 -7.96875 1.023438 -8 1.171875 -8 L 6.328125 -8 C 6.460938 -8 6.5625 -7.96875 6.625 -7.90625 C 6.6875 -7.84375 6.71875 -7.738281 6.71875 -7.59375 L 6.71875 -6.296875 C 6.71875 -6.160156 6.6875 -6.0625 6.625 -6 C 6.5625 -5.9375 6.460938 -5.90625 6.328125 -5.90625 L 3.25 -5.90625 L 3.25 -5.046875 L 5.421875 -5.046875 C 5.554688 -5.046875 5.65625 -5.015625 5.71875 -4.953125 C 5.789062 -4.890625 5.828125 -4.785156 5.828125 -4.640625 L 5.828125 -3.453125 C 5.828125 -3.316406 5.789062 -3.21875 5.71875 -3.15625 C 5.65625 -3.09375 5.554688 -3.0625 5.421875 -3.0625 L 3.25 -3.0625 L 3.25 -2.09375 L 6.328125 -2.09375 C 6.460938 -2.09375 6.5625 -2.0625 6.625 -2 C 6.6875 -1.9375 6.71875 -1.835938 6.71875 -1.703125 L 6.71875 -0.40625 C 6.71875 -0.257812 6.6875 -0.15625 6.625 -0.09375 C 6.5625 -0.03125 6.460938 0 6.328125 0 Z M 6.328125 0 "/></g></g></g><g fill="rgb(100%, 0%, 100%)" fill-opacity="1"><g transform="translate(40.799541, 29.960929)"><g><path d="M 6.328125 0 L 1.171875 0 C 1.023438 0 0.921875 -0.03125 0.859375 -0.09375 C 0.796875 -0.15625 0.765625 -0.257812 0.765625 -0.40625 L 0.765625 -7.59375 C 0.765625 -7.738281 0.796875 -7.84375 0.859375 -7.90625 C 0.921875 -7.96875 1.023438 -8 1.171875 -8 L 6.328125 -8 C 6.460938 -8 6.5625 -7.96875 6.625 -7.90625 C 6.6875 -7.84375 6.71875 -7.738281 6.71875 -7.59375 L 6.71875 -6.296875 C 6.71875 -6.160156 6.6875 -6.0625 6.625 -6 C 6.5625 -5.9375 6.460938 -5.90625 6.328125 -5.90625 L 3.25 -5.90625 L 3.25 -5.046875 L 5.421875 -5.046875 C 5.554688 -5.046875 5.65625 -5.015625 5.71875 -4.953125 C 5.789062 -4.890625 5.828125 -4.785156 5.828125 -4.640625 L 5.828125 -3.453125 C 5.828125 -3.316406 5.789062 -3.21875 5.71875 -3.15625 C 5.65625 -3.09375 5.554688 -3.0625 5.421875 -3.0625 L 3.25 -3.0625 L 3.25 -2.09375 L 6.328125 -2.09375 C 6.460938 -2.09375 6.5625 -2.0625 6.625 -2 C 6.6875 -1.9375 6.71875 -1.835938 6.71875 -1.703125 L 6.71875 -0.40625 C 6.71875 -0.257812 6.6875 -0.15625 6.625 -0.09375 C 6.5625 -0.03125 6.460938 0 6.328125 0 Z M 6.328125 0 "/></g></g></g><g fill="rgb(100%, 0%, 100%)" fill-opacity="1"><g transform="translate(48.061803, 29.960929)"><g><path d="M 4.546875 0 L 2.75 0 C 2.601562 0 2.5 -0.03125 2.4375 -0.09375 C 2.375 -0.15625 2.34375 -0.257812 2.34375 -0.40625 L 2.34375 -5.859375 L 0.71875 -5.859375 C 0.570312 -5.859375 0.46875 -5.890625 0.40625 -5.953125 C 0.34375 -6.015625 0.3125 -6.113281 0.3125 -6.25 L 0.3125 -7.59375 C 0.3125 -7.738281 0.34375 -7.84375 0.40625 -7.90625 C 0.46875 -7.96875 0.570312 -8 0.71875 -8 L 6.578125 -8 C 6.710938 -8 6.8125 -7.96875 6.875 -7.90625 C 6.945312 -7.84375 6.984375 -7.738281 6.984375 -7.59375 L 6.984375 -6.25 C 6.984375 -6.113281 6.945312 -6.015625 6.875 -5.953125 C 6.8125 -5.890625 6.710938 -5.859375 6.578125 -5.859375 L 4.9375 -5.859375 L 4.9375 -0.40625 C 4.9375 -0.257812 4.90625 -0.15625 4.84375 -0.09375 C 4.78125 -0.03125 4.679688 0 4.546875 0 Z M 4.546875 0 "/></g></g></g><g fill="rgb(100%, 0%, 100%)" fill-opacity="1"><g transform="translate(55.346277, 29.960929)"><g><path d="M 5.4375 0 L 1.171875 0 C 1.023438 0 0.921875 -0.03125 0.859375 -0.09375 C 0.796875 -0.15625 0.765625 -0.257812 0.765625 -0.40625 L 0.765625 -7.59375 C 0.765625 -7.738281 0.796875 -7.84375 0.859375 -7.90625 C 0.921875 -7.96875 1.023438 -8 1.171875 -8 L 4.703125 -8 C 5.429688 -8 5.96875 -7.859375 6.3125 -7.578125 C 6.664062 -7.304688 6.84375 -6.878906 6.84375 -6.296875 L 6.84375 -5.765625 C 6.84375 -5.453125 6.785156 -5.195312 6.671875 -5 C 6.566406 -4.800781 6.40625 -4.65625 6.1875 -4.5625 C 6.664062 -4.519531 7.019531 -4.359375 7.25 -4.078125 C 7.476562 -3.796875 7.59375 -3.382812 7.59375 -2.84375 L 7.59375 -1.828125 C 7.59375 -1.203125 7.414062 -0.738281 7.0625 -0.4375 C 6.707031 -0.144531 6.164062 0 5.4375 0 Z M 3.265625 -6.109375 L 3.265625 -4.90625 L 4.203125 -4.90625 C 4.347656 -4.90625 4.453125 -4.941406 4.515625 -5.015625 C 4.585938 -5.085938 4.625 -5.203125 4.625 -5.359375 L 4.625 -5.671875 C 4.625 -5.816406 4.585938 -5.925781 4.515625 -6 C 4.453125 -6.070312 4.347656 -6.109375 4.203125 -6.109375 Z M 3.265625 -3.203125 L 3.265625 -1.890625 L 4.703125 -1.890625 C 4.847656 -1.890625 4.953125 -1.925781 5.015625 -2 C 5.085938 -2.070312 5.125 -2.179688 5.125 -2.328125 L 5.125 -2.765625 C 5.125 -2.910156 5.085938 -3.019531 5.015625 -3.09375 C 4.953125 -3.164062 4.847656 -3.203125 4.703125 -3.203125 Z M 3.265625 -3.203125 "/></g></g></g><g fill="rgb(100%, 0%, 100%)" fill-opacity="1"><g transform="translate(63.396951, 29.960929)"><g><path d="M 7.546875 -2.09375 C 7.546875 -1.757812 7.492188 -1.453125 7.390625 -1.171875 C 7.296875 -0.890625 7.117188 -0.648438 6.859375 -0.453125 C 6.609375 -0.265625 6.253906 -0.113281 5.796875 0 C 5.347656 0.113281 4.78125 0.171875 4.09375 0.171875 C 3.40625 0.171875 2.832031 0.113281 2.375 0 C 1.925781 -0.113281 1.570312 -0.265625 1.3125 -0.453125 C 1.0625 -0.648438 0.882812 -0.890625 0.78125 -1.171875 C 0.6875 -1.453125 0.640625 -1.757812 0.640625 -2.09375 L 0.640625 -5.890625 C 0.640625 -6.234375 0.6875 -6.539062 0.78125 -6.8125 C 0.882812 -7.09375 1.0625 -7.332031 1.3125 -7.53125 C 1.570312 -7.726562 1.925781 -7.882812 2.375 -8 C 2.832031 -8.113281 3.40625 -8.171875 4.09375 -8.171875 C 4.78125 -8.171875 5.347656 -8.113281 5.796875 -8 C 6.253906 -7.882812 6.609375 -7.726562 6.859375 -7.53125 C 7.117188 -7.332031 7.296875 -7.09375 7.390625 -6.8125 C 7.492188 -6.539062 7.546875 -6.234375 7.546875 -5.890625 Z M 3.171875 -2.5 C 3.171875 -2.351562 3.222656 -2.226562 3.328125 -2.125 C 3.441406 -2.03125 3.695312 -1.984375 4.09375 -1.984375 C 4.5 -1.984375 4.753906 -2.03125 4.859375 -2.125 C 4.972656 -2.226562 5.03125 -2.351562 5.03125 -2.5 L 5.03125 -5.484375 C 5.03125 -5.628906 4.972656 -5.75 4.859375 -5.84375 C 4.753906 -5.945312 4.5 -6 4.09375 -6 C 3.695312 -6 3.441406 -5.945312 3.328125 -5.84375 C 3.222656 -5.75 3.171875 -5.628906 3.171875 -5.484375 Z M 3.171875 -2.5 "/></g></g></g><g fill="rgb(100%, 0%, 100%)" fill-opacity="1"><g transform="translate(71.580875, 29.960929)"><g><path d="M 7.546875 -2.09375 C 7.546875 -1.757812 7.492188 -1.453125 7.390625 -1.171875 C 7.296875 -0.890625 7.117188 -0.648438 6.859375 -0.453125 C 6.609375 -0.265625 6.253906 -0.113281 5.796875 0 C 5.347656 0.113281 4.78125 0.171875 4.09375 0.171875 C 3.40625 0.171875 2.832031 0.113281 2.375 0 C 1.925781 -0.113281 1.570312 -0.265625 1.3125 -0.453125 C 1.0625 -0.648438 0.882812 -0.890625 0.78125 -1.171875 C 0.6875 -1.453125 0.640625 -1.757812 0.640625 -2.09375 L 0.640625 -5.890625 C 0.640625 -6.234375 0.6875 -6.539062 0.78125 -6.8125 C 0.882812 -7.09375 1.0625 -7.332031 1.3125 -7.53125 C 1.570312 -7.726562 1.925781 -7.882812 2.375 -8 C 2.832031 -8.113281 3.40625 -8.171875 4.09375 -8.171875 C 4.78125 -8.171875 5.347656 -8.113281 5.796875 -8 C 6.253906 -7.882812 6.609375 -7.726562 6.859375 -7.53125 C 7.117188 -7.332031 7.296875 -7.09375 7.390625 -6.8125 C 7.492188 -6.539062 7.546875 -6.234375 7.546875 -5.890625 Z M 3.171875 -2.5 C 3.171875 -2.351562 3.222656 -2.226562 3.328125 -2.125 C 3.441406 -2.03125 3.695312 -1.984375 4.09375 -1.984375 C 4.5 -1.984375 4.753906 -2.03125 4.859375 -2.125 C 4.972656 -2.226562 5.03125 -2.351562 5.03125 -2.5 L 5.03125 -5.484375 C 5.03125 -5.628906 4.972656 -5.75 4.859375 -5.84375 C 4.753906 -5.945312 4.5 -6 4.09375 -6 C 3.695312 -6 3.441406 -5.945312 3.328125 -5.84375 C 3.222656 -5.75 3.171875 -5.628906 3.171875 -5.484375 Z M 3.171875 -2.5 "/></g></g></g><g fill="rgb(100%, 0%, 100%)" fill-opacity="1"><g transform="translate(79.764798, 29.960929)"><g><path d="M 2.890625 0 L 1.171875 0 C 1.023438 0 0.921875 -0.03125 0.859375 -0.09375 C 0.796875 -0.15625 0.765625 -0.257812 0.765625 -0.40625 L 0.765625 -7.59375 C 0.765625 -7.738281 0.796875 -7.84375 0.859375 -7.90625 C 0.921875 -7.96875 1.023438 -8 1.171875 -8 L 2.890625 -8 C 3.023438 -8 3.125 -7.96875 3.1875 -7.90625 C 3.25 -7.84375 3.28125 -7.738281 3.28125 -7.59375 L 3.28125 -5.046875 L 3.734375 -5.046875 L 4.875 -7.625 C 4.925781 -7.757812 4.992188 -7.851562 5.078125 -7.90625 C 5.171875 -7.96875 5.289062 -8 5.4375 -8 L 7.140625 -8 C 7.265625 -8 7.347656 -7.96875 7.390625 -7.90625 C 7.441406 -7.84375 7.441406 -7.75 7.390625 -7.625 L 6.25 -5.046875 C 6.664062 -5.023438 7 -4.878906 7.25 -4.609375 C 7.5 -4.335938 7.625 -3.976562 7.625 -3.53125 L 7.625 -0.40625 C 7.625 -0.257812 7.59375 -0.15625 7.53125 -0.09375 C 7.46875 -0.03125 7.363281 0 7.21875 0 L 5.515625 0 C 5.367188 0 5.265625 -0.03125 5.203125 -0.09375 C 5.140625 -0.15625 5.109375 -0.257812 5.109375 -0.40625 L 5.109375 -2.5625 C 5.109375 -2.6875 5.078125 -2.78125 5.015625 -2.84375 C 4.960938 -2.90625 4.875 -2.9375 4.75 -2.9375 L 3.28125 -2.9375 L 3.28125 -0.40625 C 3.28125 -0.257812 3.25 -0.15625 3.1875 -0.09375 C 3.125 -0.03125 3.023438 0 2.890625 0 Z M 2.890625 0 "/></g></g></g><g fill="rgb(0%, 100%, 100%)" fill-opacity="1"><g transform="translate(25.754722, 29.420965)"><g><path d="M 2.828125 0 L 1.171875 0 C 1.023438 0 0.921875 -0.03125 0.859375 -0.09375 C 0.796875 -0.15625 0.765625 -0.257812 0.765625 -0.40625 L 0.765625 -7.59375 C 0.765625 -7.738281 0.796875 -7.84375 0.859375 -7.90625 C 0.921875 -7.96875 1.023438 -8 1.171875 -8 L 2.328125 -8 C 2.460938 -8 2.578125 -7.972656 2.671875 -7.921875 C 2.773438 -7.878906 2.878906 -7.804688 2.984375 -7.703125 L 5.125 -5.234375 L 5.125 -7.59375 C 5.125 -7.738281 5.15625 -7.84375 5.21875 -7.90625 C 5.289062 -7.96875 5.394531 -8 5.53125 -8 L 7.203125 -8 C 7.335938 -8 7.4375 -7.96875 7.5 -7.90625 C 7.5625 -7.84375 7.59375 -7.738281 7.59375 -7.59375 L 7.59375 -0.40625 C 7.59375 -0.257812 7.5625 -0.15625 7.5 -0.09375 C 7.4375 -0.03125 7.335938 0 7.203125 0 L 5.53125 0 C 5.394531 0 5.289062 -0.03125 5.21875 -0.09375 C 5.15625 -0.15625 5.125 -0.257812 5.125 -0.40625 L 5.125 -1.765625 L 3.234375 -4.0625 L 3.234375 -0.40625 C 3.234375 -0.257812 3.203125 -0.15625 3.140625 -0.09375 C 3.078125 -0.03125 2.972656 0 2.828125 0 Z M 2.828125 0 "/></g></g></g><g fill="rgb(0%, 100%, 100%)" fill-opacity="1"><g transform="translate(34.116319, 29.420965)"><g><path d="M 6.328125 0 L 1.171875 0 C 1.023438 0 0.921875 -0.03125 0.859375 -0.09375 C 0.796875 -0.15625 0.765625 -0.257812 0.765625 -0.40625 L 0.765625 -7.59375 C 0.765625 -7.738281 0.796875 -7.84375 0.859375 -7.90625 C 0.921875 -7.96875 1.023438 -8 1.171875 -8 L 6.328125 -8 C 6.460938 -8 6.5625 -7.96875 6.625 -7.90625 C 6.6875 -7.84375 6.71875 -7.738281 6.71875 -7.59375 L 6.71875 -6.296875 C 6.71875 -6.160156 6.6875 -6.0625 6.625 -6 C 6.5625 -5.9375 6.460938 -5.90625 6.328125 -5.90625 L 3.25 -5.90625 L 3.25 -5.046875 L 5.421875 -5.046875 C 5.554688 -5.046875 5.65625 -5.015625 5.71875 -4.953125 C 5.789062 -4.890625 5.828125 -4.785156 5.828125 -4.640625 L 5.828125 -3.453125 C 5.828125 -3.316406 5.789062 -3.21875 5.71875 -3.15625 C 5.65625 -3.09375 5.554688 -3.0625 5.421875 -3.0625 L 3.25 -3.0625 L 3.25 -2.09375 L 6.328125 -2.09375 C 6.460938 -2.09375 6.5625 -2.0625 6.625 -2 C 6.6875 -1.9375 6.71875 -1.835938 6.71875 -1.703125 L 6.71875 -0.40625 C 6.71875 -0.257812 6.6875 -0.15625 6.625 -0.09375 C 6.5625 -0.03125 6.460938 0 6.328125 0 Z M 6.328125 0 "/></g></g></g><g fill="rgb(0%, 100%, 100%)" fill-opacity="1"><g transform="translate(41.378582, 29.420965)"><g><path d="M 6.328125 0 L 1.171875 0 C 1.023438 0 0.921875 -0.03125 0.859375 -0.09375 C 0.796875 -0.15625 0.765625 -0.257812 0.765625 -0.40625 L 0.765625 -7.59375 C 0.765625 -7.738281 0.796875 -7.84375 0.859375 -7.90625 C 0.921875 -7.96875 1.023438 -8 1.171875 -8 L 6.328125 -8 C 6.460938 -8 6.5625 -7.96875 6.625 -7.90625 C 6.6875 -7.84375 6.71875 -7.738281 6.71875 -7.59375 L 6.71875 -6.296875 C 6.71875 -6.160156 6.6875 -6.0625 6.625 -6 C 6.5625 -5.9375 6.460938 -5.90625 6.328125 -5.90625 L 3.25 -5.90625 L 3.25 -5.046875 L 5.421875 -5.046875 C 5.554688 -5.046875 5.65625 -5.015625 5.71875 -4.953125 C 5.789062 -4.890625 5.828125 -4.785156 5.828125 -4.640625 L 5.828125 -3.453125 C 5.828125 -3.316406 5.789062 -3.21875 5.71875 -3.15625 C 5.65625 -3.09375 5.554688 -3.0625 5.421875 -3.0625 L 3.25 -3.0625 L 3.25 -2.09375 L 6.328125 -2.09375 C 6.460938 -2.09375 6.5625 -2.0625 6.625 -2 C 6.6875 -1.9375 6.71875 -1.835938 6.71875 -1.703125 L 6.71875 -0.40625 C 6.71875 -0.257812 6.6875 -0.15625 6.625 -0.09375 C 6.5625 -0.03125 6.460938 0 6.328125 0 Z M 6.328125 0 "/></g></g></g><g fill="rgb(0%, 100%, 100%)" fill-opacity="1"><g transform="translate(48.640844, 29.420965)"><g><path d="M 4.546875 0 L 2.75 0 C 2.601562 0 2.5 -0.03125 2.4375 -0.09375 C 2.375 -0.15625 2.34375 -0.257812 2.34375 -0.40625 L 2.34375 -5.859375 L 0.71875 -5.859375 C 0.570312 -5.859375 0.46875 -5.890625 0.40625 -5.953125 C 0.34375 -6.015625 0.3125 -6.113281 0.3125 -6.25 L 0.3125 -7.59375 C 0.3125 -7.738281 0.34375 -7.84375 0.40625 -7.90625 C 0.46875 -7.96875 0.570312 -8 0.71875 -8 L 6.578125 -8 C 6.710938 -8 6.8125 -7.96875 6.875 -7.90625 C 6.945312 -7.84375 6.984375 -7.738281 6.984375 -7.59375 L 6.984375 -6.25 C 6.984375 -6.113281 6.945312 -6.015625 6.875 -5.953125 C 6.8125 -5.890625 6.710938 -5.859375 6.578125 -5.859375 L 4.9375 -5.859375 L 4.9375 -0.40625 C 4.9375 -0.257812 4.90625 -0.15625 4.84375 -0.09375 C 4.78125 -0.03125 4.679688 0 4.546875 0 Z M 4.546875 0 "/></g></g></g><g fill="rgb(0%, 100%, 100%)" fill-opacity="1"><g transform="translate(55.925318, 29.420965)"><g><path d="M 5.4375 0 L 1.171875 0 C 1.023438 0 0.921875 -0.03125 0.859375 -0.09375 C 0.796875 -0.15625 0.765625 -0.257812 0.765625 -0.40625 L 0.765625 -7.59375 C 0.765625 -7.738281 0.796875 -7.84375 0.859375 -7.90625 C 0.921875 -7.96875 1.023438 -8 1.171875 -8 L 4.703125 -8 C 5.429688 -8 5.96875 -7.859375 6.3125 -7.578125 C 6.664062 -7.304688 6.84375 -6.878906 6.84375 -6.296875 L 6.84375 -5.765625 C 6.84375 -5.453125 6.785156 -5.195312 6.671875 -5 C 6.566406 -4.800781 6.40625 -4.65625 6.1875 -4.5625 C 6.664062 -4.519531 7.019531 -4.359375 7.25 -4.078125 C 7.476562 -3.796875 7.59375 -3.382812 7.59375 -2.84375 L 7.59375 -1.828125 C 7.59375 -1.203125 7.414062 -0.738281 7.0625 -0.4375 C 6.707031 -0.144531 6.164062 0 5.4375 0 Z M 3.265625 -6.109375 L 3.265625 -4.90625 L 4.203125 -4.90625 C 4.347656 -4.90625 4.453125 -4.941406 4.515625 -5.015625 C 4.585938 -5.085938 4.625 -5.203125 4.625 -5.359375 L 4.625 -5.671875 C 4.625 -5.816406 4.585938 -5.925781 4.515625 -6 C 4.453125 -6.070312 4.347656 -6.109375 4.203125 -6.109375 Z M 3.265625 -3.203125 L 3.265625 -1.890625 L 4.703125 -1.890625 C 4.847656 -1.890625 4.953125 -1.925781 5.015625 -2 C 5.085938 -2.070312 5.125 -2.179688 5.125 -2.328125 L 5.125 -2.765625 C 5.125 -2.910156 5.085938 -3.019531 5.015625 -3.09375 C 4.953125 -3.164062 4.847656 -3.203125 4.703125 -3.203125 Z M 3.265625 -3.203125 "/></g></g></g><g fill="rgb(0%, 100%, 100%)" fill-opacity="1"><g transform="translate(63.975992, 29.420965)"><g><path d="M 7.546875 -2.09375 C 7.546875 -1.757812 7.492188 -1.453125 7.390625 -1.171875 C 7.296875 -0.890625 7.117188 -0.648438 6.859375 -0.453125 C 6.609375 -0.265625 6.253906 -0.113281 5.796875 0 C 5.347656 0.113281 4.78125 0.171875 4.09375 0.171875 C 3.40625 0.171875 2.832031 0.113281 2.375 0 C 1.925781 -0.113281 1.570312 -0.265625 1.3125 -0.453125 C 1.0625 -0.648438 0.882812 -0.890625 0.78125 -1.171875 C 0.6875 -1.453125 0.640625 -1.757812 0.640625 -2.09375 L 0.640625 -5.890625 C 0.640625 -6.234375 0.6875 -6.539062 0.78125 -6.8125 C 0.882812 -7.09375 1.0625 -7.332031 1.3125 -7.53125 C 1.570312 -7.726562 1.925781 -7.882812 2.375 -8 C 2.832031 -8.113281 3.40625 -8.171875 4.09375 -8.171875 C 4.78125 -8.171875 5.347656 -8.113281 5.796875 -8 C 6.253906 -7.882812 6.609375 -7.726562 6.859375 -7.53125 C 7.117188 -7.332031 7.296875 -7.09375 7.390625 -6.8125 C 7.492188 -6.539062 7.546875 -6.234375 7.546875 -5.890625 Z M 3.171875 -2.5 C 3.171875 -2.351562 3.222656 -2.226562 3.328125 -2.125 C 3.441406 -2.03125 3.695312 -1.984375 4.09375 -1.984375 C 4.5 -1.984375 4.753906 -2.03125 4.859375 -2.125 C 4.972656 -2.226562 5.03125 -2.351562 5.03125 -2.5 L 5.03125 -5.484375 C 5.03125 -5.628906 4.972656 -5.75 4.859375 -5.84375 C 4.753906 -5.945312 4.5 -6 4.09375 -6 C 3.695312 -6 3.441406 -5.945312 3.328125 -5.84375 C 3.222656 -5.75 3.171875 -5.628906 3.171875 -5.484375 Z M 3.171875 -2.5 "/></g></g></g><g fill="rgb(0%, 100%, 100%)" fill-opacity="1"><g transform="translate(72.159916, 29.420965)"><g><path d="M 7.546875 -2.09375 C 7.546875 -1.757812 7.492188 -1.453125 7.390625 -1.171875 C 7.296875 -0.890625 7.117188 -0.648438 6.859375 -0.453125 C 6.609375 -0.265625 6.253906 -0.113281 5.796875 0 C 5.347656 0.113281 4.78125 0.171875 4.09375 0.171875 C 3.40625 0.171875 2.832031 0.113281 2.375 0 C 1.925781 -0.113281 1.570312 -0.265625 1.3125 -0.453125 C 1.0625 -0.648438 0.882812 -0.890625 0.78125 -1.171875 C 0.6875 -1.453125 0.640625 -1.757812 0.640625 -2.09375 L 0.640625 -5.890625 C 0.640625 -6.234375 0.6875 -6.539062 0.78125 -6.8125 C 0.882812 -7.09375 1.0625 -7.332031 1.3125 -7.53125 C 1.570312 -7.726562 1.925781 -7.882812 2.375 -8 C 2.832031 -8.113281 3.40625 -8.171875 4.09375 -8.171875 C 4.78125 -8.171875 5.347656 -8.113281 5.796875 -8 C 6.253906 -7.882812 6.609375 -7.726562 6.859375 -7.53125 C 7.117188 -7.332031 7.296875 -7.09375 7.390625 -6.8125 C 7.492188 -6.539062 7.546875 -6.234375 7.546875 -5.890625 Z M 3.171875 -2.5 C 3.171875 -2.351562 3.222656 -2.226562 3.328125 -2.125 C 3.441406 -2.03125 3.695312 -1.984375 4.09375 -1.984375 C 4.5 -1.984375 4.753906 -2.03125 4.859375 -2.125 C 4.972656 -2.226562 5.03125 -2.351562 5.03125 -2.5 L 5.03125 -5.484375 C 5.03125 -5.628906 4.972656 -5.75 4.859375 -5.84375 C 4.753906 -5.945312 4.5 -6 4.09375 -6 C 3.695312 -6 3.441406 -5.945312 3.328125 -5.84375 C 3.222656 -5.75 3.171875 -5.628906 3.171875 -5.484375 Z M 3.171875 -2.5 "/></g></g></g><g fill="rgb(0%, 100%, 100%)" fill-opacity="1"><g transform="translate(80.343839, 29.420965)"><g><path d="M 2.890625 0 L 1.171875 0 C 1.023438 0 0.921875 -0.03125 0.859375 -0.09375 C 0.796875 -0.15625 0.765625 -0.257812 0.765625 -0.40625 L 0.765625 -7.59375 C 0.765625 -7.738281 0.796875 -7.84375 0.859375 -7.90625 C 0.921875 -7.96875 1.023438 -8 1.171875 -8 L 2.890625 -8 C 3.023438 -8 3.125 -7.96875 3.1875 -7.90625 C 3.25 -7.84375 3.28125 -7.738281 3.28125 -7.59375 L 3.28125 -5.046875 L 3.734375 -5.046875 L 4.875 -7.625 C 4.925781 -7.757812 4.992188 -7.851562 5.078125 -7.90625 C 5.171875 -7.96875 5.289062 -8 5.4375 -8 L 7.140625 -8 C 7.265625 -8 7.347656 -7.96875 7.390625 -7.90625 C 7.441406 -7.84375 7.441406 -7.75 7.390625 -7.625 L 6.25 -5.046875 C 6.664062 -5.023438 7 -4.878906 7.25 -4.609375 C 7.5 -4.335938 7.625 -3.976562 7.625 -3.53125 L 7.625 -0.40625 C 7.625 -0.257812 7.59375 -0.15625 7.53125 -0.09375 C 7.46875 -0.03125 7.363281 0 7.21875 0 L 5.515625 0 C 5.367188 0 5.265625 -0.03125 5.203125 -0.09375 C 5.140625 -0.15625 5.109375 -0.257812 5.109375 -0.40625 L 5.109375 -2.5625 C 5.109375 -2.6875 5.078125 -2.78125 5.015625 -2.84375 C 4.960938 -2.90625 4.875 -2.9375 4.75 -2.9375 L 3.28125 -2.9375 L 3.28125 -0.40625 C 3.28125 -0.257812 3.25 -0.15625 3.1875 -0.09375 C 3.125 -0.03125 3.023438 0 2.890625 0 Z M 2.890625 0 "/></g></g></g><g fill="rgb(100%, 74.119568%, 34.899902%)" fill-opacity="1"><g transform="translate(25.465202, 29.690947)"><g><path d="M 2.828125 0 L 1.171875 0 C 1.023438 0 0.921875 -0.03125 0.859375 -0.09375 C 0.796875 -0.15625 0.765625 -0.257812 0.765625 -0.40625 L 0.765625 -7.59375 C 0.765625 -7.738281 0.796875 -7.84375 0.859375 -7.90625 C 0.921875 -7.96875 1.023438 -8 1.171875 -8 L 2.328125 -8 C 2.460938 -8 2.578125 -7.972656 2.671875 -7.921875 C 2.773438 -7.878906 2.878906 -7.804688 2.984375 -7.703125 L 5.125 -5.234375 L 5.125 -7.59375 C 5.125 -7.738281 5.15625 -7.84375 5.21875 -7.90625 C 5.289062 -7.96875 5.394531 -8 5.53125 -8 L 7.203125 -8 C 7.335938 -8 7.4375 -7.96875 7.5 -7.90625 C 7.5625 -7.84375 7.59375 -7.738281 7.59375 -7.59375 L 7.59375 -0.40625 C 7.59375 -0.257812 7.5625 -0.15625 7.5 -0.09375 C 7.4375 -0.03125 7.335938 0 7.203125 0 L 5.53125 0 C 5.394531 0 5.289062 -0.03125 5.21875 -0.09375 C 5.15625 -0.15625 5.125 -0.257812 5.125 -0.40625 L 5.125 -1.765625 L 3.234375 -4.0625 L 3.234375 -0.40625 C 3.234375 -0.257812 3.203125 -0.15625 3.140625 -0.09375 C 3.078125 -0.03125 2.972656 0 2.828125 0 Z M 2.828125 0 "/></g></g></g><g fill="rgb(100%, 74.119568%, 34.899902%)" fill-opacity="1"><g transform="translate(33.826799, 29.690947)"><g><path d="M 6.328125 0 L 1.171875 0 C 1.023438 0 0.921875 -0.03125 0.859375 -0.09375 C 0.796875 -0.15625 0.765625 -0.257812 0.765625 -0.40625 L 0.765625 -7.59375 C 0.765625 -7.738281 0.796875 -7.84375 0.859375 -7.90625 C 0.921875 -7.96875 1.023438 -8 1.171875 -8 L 6.328125 -8 C 6.460938 -8 6.5625 -7.96875 6.625 -7.90625 C 6.6875 -7.84375 6.71875 -7.738281 6.71875 -7.59375 L 6.71875 -6.296875 C 6.71875 -6.160156 6.6875 -6.0625 6.625 -6 C 6.5625 -5.9375 6.460938 -5.90625 6.328125 -5.90625 L 3.25 -5.90625 L 3.25 -5.046875 L 5.421875 -5.046875 C 5.554688 -5.046875 5.65625 -5.015625 5.71875 -4.953125 C 5.789062 -4.890625 5.828125 -4.785156 5.828125 -4.640625 L 5.828125 -3.453125 C 5.828125 -3.316406 5.789062 -3.21875 5.71875 -3.15625 C 5.65625 -3.09375 5.554688 -3.0625 5.421875 -3.0625 L 3.25 -3.0625 L 3.25 -2.09375 L 6.328125 -2.09375 C 6.460938 -2.09375 6.5625 -2.0625 6.625 -2 C 6.6875 -1.9375 6.71875 -1.835938 6.71875 -1.703125 L 6.71875 -0.40625 C 6.71875 -0.257812 6.6875 -0.15625 6.625 -0.09375 C 6.5625 -0.03125 6.460938 0 6.328125 0 Z M 6.328125 0 "/></g></g></g><g fill="rgb(100%, 74.119568%, 34.899902%)" fill-opacity="1"><g transform="translate(41.089061, 29.690947)"><g><path d="M 6.328125 0 L 1.171875 0 C 1.023438 0 0.921875 -0.03125 0.859375 -0.09375 C 0.796875 -0.15625 0.765625 -0.257812 0.765625 -0.40625 L 0.765625 -7.59375 C 0.765625 -7.738281 0.796875 -7.84375 0.859375 -7.90625 C 0.921875 -7.96875 1.023438 -8 1.171875 -8 L 6.328125 -8 C 6.460938 -8 6.5625 -7.96875 6.625 -7.90625 C 6.6875 -7.84375 6.71875 -7.738281 6.71875 -7.59375 L 6.71875 -6.296875 C 6.71875 -6.160156 6.6875 -6.0625 6.625 -6 C 6.5625 -5.9375 6.460938 -5.90625 6.328125 -5.90625 L 3.25 -5.90625 L 3.25 -5.046875 L 5.421875 -5.046875 C 5.554688 -5.046875 5.65625 -5.015625 5.71875 -4.953125 C 5.789062 -4.890625 5.828125 -4.785156 5.828125 -4.640625 L 5.828125 -3.453125 C 5.828125 -3.316406 5.789062 -3.21875 5.71875 -3.15625 C 5.65625 -3.09375 5.554688 -3.0625 5.421875 -3.0625 L 3.25 -3.0625 L 3.25 -2.09375 L 6.328125 -2.09375 C 6.460938 -2.09375 6.5625 -2.0625 6.625 -2 C 6.6875 -1.9375 6.71875 -1.835938 6.71875 -1.703125 L 6.71875 -0.40625 C 6.71875 -0.257812 6.6875 -0.15625 6.625 -0.09375 C 6.5625 -0.03125 6.460938 0 6.328125 0 Z M 6.328125 0 "/></g></g></g><g fill="rgb(100%, 74.119568%, 34.899902%)" fill-opacity="1"><g transform="translate(48.351324, 29.690947)"><g><path d="M 4.546875 0 L 2.75 0 C 2.601562 0 2.5 -0.03125 2.4375 -0.09375 C 2.375 -0.15625 2.34375 -0.257812 2.34375 -0.40625 L 2.34375 -5.859375 L 0.71875 -5.859375 C 0.570312 -5.859375 0.46875 -5.890625 0.40625 -5.953125 C 0.34375 -6.015625 0.3125 -6.113281 0.3125 -6.25 L 0.3125 -7.59375 C 0.3125 -7.738281 0.34375 -7.84375 0.40625 -7.90625 C 0.46875 -7.96875 0.570312 -8 0.71875 -8 L 6.578125 -8 C 6.710938 -8 6.8125 -7.96875 6.875 -7.90625 C 6.945312 -7.84375 6.984375 -7.738281 6.984375 -7.59375 L 6.984375 -6.25 C 6.984375 -6.113281 6.945312 -6.015625 6.875 -5.953125 C 6.8125 -5.890625 6.710938 -5.859375 6.578125 -5.859375 L 4.9375 -5.859375 L 4.9375 -0.40625 C 4.9375 -0.257812 4.90625 -0.15625 4.84375 -0.09375 C 4.78125 -0.03125 4.679688 0 4.546875 0 Z M 4.546875 0 "/></g></g></g><g fill="rgb(100%, 74.119568%, 34.899902%)" fill-opacity="1"><g transform="translate(55.635798, 29.690947)"><g><path d="M 5.4375 0 L 1.171875 0 C 1.023438 0 0.921875 -0.03125 0.859375 -0.09375 C 0.796875 -0.15625 0.765625 -0.257812 0.765625 -0.40625 L 0.765625 -7.59375 C 0.765625 -7.738281 0.796875 -7.84375 0.859375 -7.90625 C 0.921875 -7.96875 1.023438 -8 1.171875 -8 L 4.703125 -8 C 5.429688 -8 5.96875 -7.859375 6.3125 -7.578125 C 6.664062 -7.304688 6.84375 -6.878906 6.84375 -6.296875 L 6.84375 -5.765625 C 6.84375 -5.453125 6.785156 -5.195312 6.671875 -5 C 6.566406 -4.800781 6.40625 -4.65625 6.1875 -4.5625 C 6.664062 -4.519531 7.019531 -4.359375 7.25 -4.078125 C 7.476562 -3.796875 7.59375 -3.382812 7.59375 -2.84375 L 7.59375 -1.828125 C 7.59375 -1.203125 7.414062 -0.738281 7.0625 -0.4375 C 6.707031 -0.144531 6.164062 0 5.4375 0 Z M 3.265625 -6.109375 L 3.265625 -4.90625 L 4.203125 -4.90625 C 4.347656 -4.90625 4.453125 -4.941406 4.515625 -5.015625 C 4.585938 -5.085938 4.625 -5.203125 4.625 -5.359375 L 4.625 -5.671875 C 4.625 -5.816406 4.585938 -5.925781 4.515625 -6 C 4.453125 -6.070312 4.347656 -6.109375 4.203125 -6.109375 Z M 3.265625 -3.203125 L 3.265625 -1.890625 L 4.703125 -1.890625 C 4.847656 -1.890625 4.953125 -1.925781 5.015625 -2 C 5.085938 -2.070312 5.125 -2.179688 5.125 -2.328125 L 5.125 -2.765625 C 5.125 -2.910156 5.085938 -3.019531 5.015625 -3.09375 C 4.953125 -3.164062 4.847656 -3.203125 4.703125 -3.203125 Z M 3.265625 -3.203125 "/></g></g></g><g fill="rgb(100%, 74.119568%, 34.899902%)" fill-opacity="1"><g transform="translate(63.686471, 29.690947)"><g><path d="M 7.546875 -2.09375 C 7.546875 -1.757812 7.492188 -1.453125 7.390625 -1.171875 C 7.296875 -0.890625 7.117188 -0.648438 6.859375 -0.453125 C 6.609375 -0.265625 6.253906 -0.113281 5.796875 0 C 5.347656 0.113281 4.78125 0.171875 4.09375 0.171875 C 3.40625 0.171875 2.832031 0.113281 2.375 0 C 1.925781 -0.113281 1.570312 -0.265625 1.3125 -0.453125 C 1.0625 -0.648438 0.882812 -0.890625 0.78125 -1.171875 C 0.6875 -1.453125 0.640625 -1.757812 0.640625 -2.09375 L 0.640625 -5.890625 C 0.640625 -6.234375 0.6875 -6.539062 0.78125 -6.8125 C 0.882812 -7.09375 1.0625 -7.332031 1.3125 -7.53125 C 1.570312 -7.726562 1.925781 -7.882812 2.375 -8 C 2.832031 -8.113281 3.40625 -8.171875 4.09375 -8.171875 C 4.78125 -8.171875 5.347656 -8.113281 5.796875 -8 C 6.253906 -7.882812 6.609375 -7.726562 6.859375 -7.53125 C 7.117188 -7.332031 7.296875 -7.09375 7.390625 -6.8125 C 7.492188 -6.539062 7.546875 -6.234375 7.546875 -5.890625 Z M 3.171875 -2.5 C 3.171875 -2.351562 3.222656 -2.226562 3.328125 -2.125 C 3.441406 -2.03125 3.695312 -1.984375 4.09375 -1.984375 C 4.5 -1.984375 4.753906 -2.03125 4.859375 -2.125 C 4.972656 -2.226562 5.03125 -2.351562 5.03125 -2.5 L 5.03125 -5.484375 C 5.03125 -5.628906 4.972656 -5.75 4.859375 -5.84375 C 4.753906 -5.945312 4.5 -6 4.09375 -6 C 3.695312 -6 3.441406 -5.945312 3.328125 -5.84375 C 3.222656 -5.75 3.171875 -5.628906 3.171875 -5.484375 Z M 3.171875 -2.5 "/></g></g></g><g fill="rgb(100%, 74.119568%, 34.899902%)" fill-opacity="1"><g transform="translate(71.870395, 29.690947)"><g><path d="M 7.546875 -2.09375 C 7.546875 -1.757812 7.492188 -1.453125 7.390625 -1.171875 C 7.296875 -0.890625 7.117188 -0.648438 6.859375 -0.453125 C 6.609375 -0.265625 6.253906 -0.113281 5.796875 0 C 5.347656 0.113281 4.78125 0.171875 4.09375 0.171875 C 3.40625 0.171875 2.832031 0.113281 2.375 0 C 1.925781 -0.113281 1.570312 -0.265625 1.3125 -0.453125 C 1.0625 -0.648438 0.882812 -0.890625 0.78125 -1.171875 C 0.6875 -1.453125 0.640625 -1.757812 0.640625 -2.09375 L 0.640625 -5.890625 C 0.640625 -6.234375 0.6875 -6.539062 0.78125 -6.8125 C 0.882812 -7.09375 1.0625 -7.332031 1.3125 -7.53125 C 1.570312 -7.726562 1.925781 -7.882812 2.375 -8 C 2.832031 -8.113281 3.40625 -8.171875 4.09375 -8.171875 C 4.78125 -8.171875 5.347656 -8.113281 5.796875 -8 C 6.253906 -7.882812 6.609375 -7.726562 6.859375 -7.53125 C 7.117188 -7.332031 7.296875 -7.09375 7.390625 -6.8125 C 7.492188 -6.539062 7.546875 -6.234375 7.546875 -5.890625 Z M 3.171875 -2.5 C 3.171875 -2.351562 3.222656 -2.226562 3.328125 -2.125 C 3.441406 -2.03125 3.695312 -1.984375 4.09375 -1.984375 C 4.5 -1.984375 4.753906 -2.03125 4.859375 -2.125 C 4.972656 -2.226562 5.03125 -2.351562 5.03125 -2.5 L 5.03125 -5.484375 C 5.03125 -5.628906 4.972656 -5.75 4.859375 -5.84375 C 4.753906 -5.945312 4.5 -6 4.09375 -6 C 3.695312 -6 3.441406 -5.945312 3.328125 -5.84375 C 3.222656 -5.75 3.171875 -5.628906 3.171875 -5.484375 Z M 3.171875 -2.5 "/></g></g></g><g fill="rgb(100%, 74.119568%, 34.899902%)" fill-opacity="1"><g transform="translate(80.054319, 29.690947)"><g><path d="M 2.890625 0 L 1.171875 0 C 1.023438 0 0.921875 -0.03125 0.859375 -0.09375 C 0.796875 -0.15625 0.765625 -0.257812 0.765625 -0.40625 L 0.765625 -7.59375 C 0.765625 -7.738281 0.796875 -7.84375 0.859375 -7.90625 C 0.921875 -7.96875 1.023438 -8 1.171875 -8 L 2.890625 -8 C 3.023438 -8 3.125 -7.96875 3.1875 -7.90625 C 3.25 -7.84375 3.28125 -7.738281 3.28125 -7.59375 L 3.28125 -5.046875 L 3.734375 -5.046875 L 4.875 -7.625 C 4.925781 -7.757812 4.992188 -7.851562 5.078125 -7.90625 C 5.171875 -7.96875 5.289062 -8 5.4375 -8 L 7.140625 -8 C 7.265625 -8 7.347656 -7.96875 7.390625 -7.90625 C 7.441406 -7.84375 7.441406 -7.75 7.390625 -7.625 L 6.25 -5.046875 C 6.664062 -5.023438 7 -4.878906 7.25 -4.609375 C 7.5 -4.335938 7.625 -3.976562 7.625 -3.53125 L 7.625 -0.40625 C 7.625 -0.257812 7.59375 -0.15625 7.53125 -0.09375 C 7.46875 -0.03125 7.363281 0 7.21875 0 L 5.515625 0 C 5.367188 0 5.265625 -0.03125 5.203125 -0.09375 C 5.140625 -0.15625 5.109375 -0.257812 5.109375 -0.40625 L 5.109375 -2.5625 C 5.109375 -2.6875 5.078125 -2.78125 5.015625 -2.84375 C 4.960938 -2.90625 4.875 -2.9375 4.75 -2.9375 L 3.28125 -2.9375 L 3.28125 -0.40625 C 3.28125 -0.257812 3.25 -0.15625 3.1875 -0.09375 C 3.125 -0.03125 3.023438 0 2.890625 0 Z M 2.890625 0 "/></g></g></g></svg>