<?xml version="1.0" encoding="utf-8"?>
<!-- Generator: Adobe Illustrator 26.2.1, SVG Export Plug-In . SVG Version: 6.00 Build 0)  -->
<svg version="1.1" id="Layer_1" xmlns="http://www.w3.org/2000/svg" xmlns:xlink="http://www.w3.org/1999/xlink" x="0px" y="0px"
	 viewBox="0 0 105.9 12.8" style="enable-background:new 0 0 105.9 12.8;" xml:space="preserve">
<style type="text/css">
	.st0{clip-path:url(#SVGID_00000106828731254793150160000004757388803187748535_);}
	.st1{fill:#E67C6C;}
	.st2{clip-path:url(#SVGID_00000094597905787807812470000012313319113928756669_);}
	.st3{fill:#FFFFFF;}
	.st4{clip-path:url(#SVGID_00000080173566110522502090000014170388184681303964_);}
	.st5{fill:#63C8DF;}
	.st6{fill:#746244;}
	.st7{fill:#FF00FF;}
	.st8{fill:#00FFFF;}
	.st9{fill:#FFBD59;}
</style>
<g>
	<defs>
		<rect id="SVGID_1_" x="0.8" y="1" width="17.8" height="11.8"/>
	</defs>
	<clipPath id="SVGID_00000155120961176864731160000009839235642232926390_">
		<use xlink:href="#SVGID_1_"  style="overflow:visible;"/>
	</clipPath>
	<g style="clip-path:url(#SVGID_00000155120961176864731160000009839235642232926390_);">
		<path class="st1" d="M1.5,1v10.7H18V1h-0.3v10c0,0.1-0.1,0.1-0.1,0.1c-1.8-0.5-3.6-0.6-5.4-0.4c-0.8,0.1-1.6,0.2-2.4,0.4
			c0,0,0,0,0,0c0,0,0,0,0,0c-0.8-0.2-1.6-0.3-2.4-0.4c-1.8-0.2-3.6-0.1-5.4,0.4c-0.1,0-0.1,0-0.1-0.1V1H1.5z"/>
	</g>
</g>
<g>
	<defs>
		<rect id="SVGID_00000121992573687555102950000002157134666167601797_" x="1.7" y="-0.1" width="16" height="11.8"/>
	</defs>
	<clipPath id="SVGID_00000168802962760272345400000000760500768746748824_">
		<use xlink:href="#SVGID_00000121992573687555102950000002157134666167601797_"  style="overflow:visible;"/>
	</clipPath>
	<g style="clip-path:url(#SVGID_00000168802962760272345400000000760500768746748824_);">
		<path class="st3" d="M17.5,1c-0.1,0-0.2-0.1-0.3-0.1c-0.3-0.1-0.6-0.2-0.8-0.3h0c0,0,0,0,0,0C14.1,0,11.8,0.1,9.8,1v9.9
			c0.8-0.2,1.6-0.3,2.4-0.4c1.8-0.2,3.6-0.1,5.3,0.4L17.5,1C17.5,1.1,17.5,1,17.5,1z M8.5,0.6C6.6,0,4.6,0.1,2.7,0.7
			C2.5,0.8,2.2,0.9,2,1C2,1,2,1,2,1c0,0.1,0,0.2,0,0.2v9.7c1.7-0.4,3.5-0.5,5.3-0.4c0.8,0.1,1.6,0.2,2.4,0.4V1
			C9.3,0.8,8.9,0.7,8.5,0.6C8.5,0.6,8.5,0.6,8.5,0.6z"/>
	</g>
</g>
<g>
	<defs>
		<rect id="SVGID_00000062182176218246086110000016901702525316908950_" x="0.8" y="-0.1" width="17.8" height="12.9"/>
	</defs>
	<clipPath id="SVGID_00000090259887445359201130000010156216658319282581_">
		<use xlink:href="#SVGID_00000062182176218246086110000016901702525316908950_"  style="overflow:visible;"/>
	</clipPath>
	<g style="clip-path:url(#SVGID_00000090259887445359201130000010156216658319282581_);">
		<path class="st5" d="M10.4,0.6H9c0.2,0.1,0.5,0.2,0.7,0.3C9.9,0.8,10.2,0.7,10.4,0.6z M16.8,0.6c0.2,0.1,0.5,0.2,0.7,0.3
			c0,0,0,0,0,0H18c0,0,0.1,0,0.1,0.1v10.8c0,0,0,0.1-0.1,0.1H1.4c0,0-0.1,0-0.1-0.1V0.9c0,0,0-0.1,0.1-0.1h0.5c0,0,0,0,0,0
			c0.2-0.1,0.3-0.1,0.5-0.2c0.1,0,0.1-0.1,0.2-0.1H1v11.6h7.8c0,0,0,0,0,0c0,0,0.1,0,0.1,0.1c0.1,0.4,0.5,0.3,0.8,0.3
			c0.3,0,0.7,0.1,0.9-0.3c0,0,0,0,0,0c0,0,0,0,0,0h7.8V0.6H16.8z"/>
		<path class="st6" d="M18.6,0.4h-2.2c-0.1,0-0.2-0.1-0.3-0.1c-1.2-0.3-2.5-0.4-3.7-0.2c-0.5,0.1-0.9,0.2-1.4,0.3H8.6
			c-1.8-0.5-3.7-0.5-5.5,0H0.9c0,0-0.1,0-0.1,0.1v11.7c0,0,0,0.1,0.1,0.1h7.8c0.1,0.4,0.6,0.4,1,0.4c0.4,0,0.8,0.1,1-0.4h7.9
			c0,0,0.1,0,0.1-0.1L18.6,0.4C18.6,0.5,18.6,0.4,18.6,0.4z M16.2,0.6C16.3,0.6,16.3,0.6,16.2,0.6L16.2,0.6c0.3,0.1,0.6,0.2,0.9,0.3
			c0.1,0,0.2,0.1,0.3,0.1c0,0,0,0,0,0.1v9.9c-1.7-0.4-3.5-0.5-5.3-0.4c-0.8,0.1-1.6,0.2-2.4,0.4V1C11.8,0.1,14.1,0,16.2,0.6z
			 M1.9,11.1c1.7-0.5,3.6-0.6,5.4-0.4c0.8,0.1,1.6,0.2,2.4,0.4c0,0,0,0,0,0c0,0,0,0,0,0c0.8-0.2,1.6-0.3,2.4-0.4
			c1.8-0.2,3.6-0.1,5.4,0.4c0,0,0.1,0,0.1-0.1V1H18v10.7H1.5V1h0.3L1.9,11.1C1.8,11.1,1.8,11.1,1.9,11.1z M1.9,1C1.9,1,1.9,1,1.9,1
			C1.9,1,1.9,1,1.9,1z M10.4,0.6c-0.2,0.1-0.5,0.2-0.7,0.3C9.5,0.8,9.3,0.7,9,0.6H10.4z M8.5,0.6C8.5,0.6,8.5,0.6,8.5,0.6
			C8.9,0.7,9.3,0.8,9.6,1v9.9c-0.8-0.2-1.6-0.3-2.4-0.4c-1.8-0.2-3.6-0.1-5.3,0.4V1.2c0,0,0-0.2,0-0.2C2,1,2,1,2,1
			c0.2-0.1,0.4-0.2,0.6-0.2C4.6,0.1,6.6,0,8.5,0.6z M18.5,12.2h-7.8c0,0,0,0,0,0c0,0,0,0,0,0c-0.2,0.4-0.6,0.3-0.9,0.3
			c-0.3,0-0.7,0.1-0.8-0.3c0,0,0-0.1-0.1-0.1c0,0,0,0,0,0H1V0.6h1.6c-0.1,0-0.1,0-0.2,0.1C2.2,0.7,2.1,0.8,1.9,0.9c0,0,0,0,0,0H1.4
			c0,0-0.1,0-0.1,0.1v10.8c0,0,0,0.1,0.1,0.1H18c0,0,0.1,0,0.1-0.1V0.9c0,0,0-0.1-0.1-0.1h-0.5c0,0,0,0,0,0
			c-0.2-0.1-0.4-0.2-0.7-0.3h1.6V12.2z"/>
	</g>
</g>
<g>
	<g transform="translate(25.175681, 29.960929)">
		<g>
			<path class="st7" d="M0.6-18.3h-2.2c-0.2,0-0.3,0-0.4-0.1c-0.1-0.1-0.1-0.2-0.1-0.4v-9.6c0-0.2,0-0.3,0.1-0.4
				C-2-29-1.8-29-1.6-29h1.5c0.2,0,0.3,0,0.5,0.1c0.1,0.1,0.3,0.2,0.4,0.3l2.9,3.3v-3.1c0-0.2,0-0.3,0.1-0.4C3.9-29,4-29,4.2-29h2.2
				c0.2,0,0.3,0,0.4,0.1s0.1,0.2,0.1,0.4v9.6c0,0.2,0,0.3-0.1,0.4c-0.1,0.1-0.2,0.1-0.4,0.1H4.2c-0.2,0-0.3,0-0.4-0.1
				c-0.1-0.1-0.1-0.2-0.1-0.4v-1.8l-2.5-3.1v4.9c0,0.2,0,0.3-0.1,0.4C0.9-18.4,0.8-18.3,0.6-18.3z"/>
		</g>
	</g>
</g>
<g>
	<g transform="translate(33.537278, 29.960929)">
		<g>
			<path class="st7" d="M8-18.3H1.2c-0.2,0-0.3,0-0.4-0.1c-0.1-0.1-0.1-0.2-0.1-0.4v-9.6c0-0.2,0-0.3,0.1-0.4S1-29,1.2-29H8
				c0.2,0,0.3,0,0.4,0.1c0.1,0.1,0.1,0.2,0.1,0.4v1.7c0,0.2,0,0.3-0.1,0.4c-0.1,0.1-0.2,0.1-0.4,0.1H3.9v1.1h2.9
				c0.2,0,0.3,0,0.4,0.1c0.1,0.1,0.1,0.2,0.1,0.4v1.6c0,0.2-0.1,0.3-0.1,0.4c-0.1,0.1-0.2,0.1-0.4,0.1H3.9v1.3H8
				c0.2,0,0.3,0,0.4,0.1c0.1,0.1,0.1,0.2,0.1,0.4v1.7c0,0.2,0,0.3-0.1,0.4C8.3-18.4,8.2-18.3,8-18.3z"/>
		</g>
	</g>
</g>
<g>
	<g transform="translate(40.799541, 29.960929)">
		<g>
			<path class="st7" d="M10.5-18.3H3.6c-0.2,0-0.3,0-0.4-0.1C3.1-18.6,3-18.7,3-18.9v-9.6c0-0.2,0-0.3,0.1-0.4C3.2-29,3.4-29,3.6-29
				h6.9c0.2,0,0.3,0,0.4,0.1s0.1,0.2,0.1,0.4v1.7c0,0.2,0,0.3-0.1,0.4c-0.1,0.1-0.2,0.1-0.4,0.1H6.3v1.1h2.9c0.2,0,0.3,0,0.4,0.1
				c0.1,0.1,0.1,0.2,0.1,0.4v1.6c0,0.2-0.1,0.3-0.1,0.4c-0.1,0.1-0.2,0.1-0.4,0.1H6.3v1.3h4.1c0.2,0,0.3,0,0.4,0.1s0.1,0.2,0.1,0.4
				v1.7c0,0.2,0,0.3-0.1,0.4C10.8-18.4,10.6-18.3,10.5-18.3z"/>
		</g>
	</g>
</g>
<g>
	<g transform="translate(48.061803, 29.960929)">
		<g>
			<path class="st7" d="M10.5-18.3H8.1c-0.2,0-0.3,0-0.4-0.1c-0.1-0.1-0.1-0.2-0.1-0.4v-7.3H5.4c-0.2,0-0.3,0-0.4-0.1
				c-0.1-0.1-0.1-0.2-0.1-0.4v-1.8c0-0.2,0-0.3,0.1-0.4C5.1-29,5.2-29,5.4-29h7.8c0.2,0,0.3,0,0.4,0.1c0.1,0.1,0.1,0.2,0.1,0.4v1.8
				c0,0.2-0.1,0.3-0.1,0.4c-0.1,0.1-0.2,0.1-0.4,0.1H11v7.3c0,0.2,0,0.3-0.1,0.4C10.8-18.4,10.7-18.3,10.5-18.3z"/>
		</g>
	</g>
</g>
<g>
	<g transform="translate(55.346277, 29.960929)">
		<g>
			<path class="st7" d="M14.1-18.3H8.4c-0.2,0-0.3,0-0.4-0.1c-0.1-0.1-0.1-0.2-0.1-0.4v-9.6c0-0.2,0-0.3,0.1-0.4
				C8.1-29,8.2-29,8.4-29h4.7c1,0,1.7,0.2,2.1,0.6c0.5,0.4,0.7,0.9,0.7,1.7v0.7c0,0.4-0.1,0.8-0.2,1c-0.1,0.3-0.4,0.5-0.6,0.6
				c0.6,0.1,1.1,0.3,1.4,0.6c0.3,0.4,0.5,0.9,0.5,1.6v1.4c0,0.8-0.2,1.5-0.7,1.9C15.8-18.5,15.1-18.3,14.1-18.3z M11.2-26.5v1.6h1.2
				c0.2,0,0.3,0,0.4-0.1c0.1-0.1,0.1-0.2,0.1-0.5v-0.4c0-0.2-0.1-0.3-0.1-0.4c-0.1-0.1-0.2-0.1-0.4-0.1H11.2z M11.2-22.6v1.8h1.9
				c0.2,0,0.3,0,0.4-0.1c0.1-0.1,0.1-0.2,0.1-0.4V-22c0-0.2-0.1-0.3-0.1-0.4c-0.1-0.1-0.2-0.1-0.4-0.1H11.2z"/>
		</g>
	</g>
</g>
<g>
	<g transform="translate(63.396951, 29.960929)">
		<g>
			<path class="st7" d="M19.6-21.1c0,0.4-0.1,0.9-0.2,1.2c-0.1,0.4-0.4,0.7-0.7,1c-0.3,0.2-0.8,0.5-1.4,0.6
				c-0.6,0.2-1.4,0.2-2.3,0.2s-1.7-0.1-2.3-0.2c-0.6-0.2-1.1-0.4-1.4-0.6c-0.3-0.3-0.6-0.6-0.7-1c-0.1-0.4-0.2-0.8-0.2-1.2v-5.1
				c0-0.5,0.1-0.9,0.2-1.2c0.1-0.4,0.4-0.7,0.7-1c0.3-0.3,0.8-0.5,1.4-0.6c0.6-0.2,1.4-0.2,2.3-0.2s1.7,0.1,2.3,0.2
				c0.6,0.2,1.1,0.4,1.4,0.6c0.3,0.3,0.6,0.6,0.7,1c0.1,0.4,0.2,0.8,0.2,1.2V-21.1z M13.8-21.7c0,0.2,0.1,0.4,0.2,0.5
				c0.2,0.1,0.5,0.2,1,0.2c0.5,0,0.9-0.1,1-0.2c0.2-0.1,0.2-0.3,0.2-0.5v-4c0-0.2-0.1-0.4-0.2-0.5c-0.1-0.1-0.5-0.2-1-0.2
				c-0.5,0-0.9,0.1-1,0.2c-0.1,0.1-0.2,0.3-0.2,0.5V-21.7z"/>
		</g>
	</g>
</g>
<g>
	<g transform="translate(71.580875, 29.960929)">
		<g>
			<path class="st7" d="M22.3-21.1c0,0.4-0.1,0.9-0.2,1.2c-0.1,0.4-0.4,0.7-0.7,1c-0.3,0.2-0.8,0.5-1.4,0.6
				c-0.6,0.2-1.4,0.2-2.3,0.2s-1.7-0.1-2.3-0.2c-0.6-0.2-1.1-0.4-1.4-0.6c-0.3-0.3-0.6-0.6-0.7-1c-0.1-0.4-0.2-0.8-0.2-1.2v-5.1
				c0-0.5,0.1-0.9,0.2-1.2c0.1-0.4,0.4-0.7,0.7-1c0.3-0.3,0.8-0.5,1.4-0.6c0.6-0.2,1.4-0.2,2.3-0.2s1.7,0.1,2.3,0.2
				c0.6,0.2,1.1,0.4,1.4,0.6c0.3,0.3,0.6,0.6,0.7,1c0.1,0.4,0.2,0.8,0.2,1.2V-21.1z M16.5-21.7c0,0.2,0.1,0.4,0.2,0.5
				c0.2,0.1,0.5,0.2,1,0.2c0.5,0,0.9-0.1,1-0.2c0.2-0.1,0.2-0.3,0.2-0.5v-4c0-0.2-0.1-0.4-0.2-0.5c-0.1-0.1-0.5-0.2-1-0.2
				c-0.5,0-0.9,0.1-1,0.2c-0.1,0.1-0.2,0.3-0.2,0.5V-21.7z"/>
		</g>
	</g>
</g>
<g>
	<g transform="translate(79.764798, 29.960929)">
		<g>
			<path class="st7" d="M18.9-18.3h-2.3c-0.2,0-0.3,0-0.4-0.1c-0.1-0.1-0.1-0.2-0.1-0.4v-9.6c0-0.2,0-0.3,0.1-0.4
				c0.1-0.1,0.2-0.1,0.4-0.1h2.3c0.2,0,0.3,0,0.4,0.1s0.1,0.2,0.1,0.4v3.4H20l1.5-3.4c0.1-0.2,0.2-0.3,0.3-0.4
				c0.1-0.1,0.3-0.1,0.5-0.1h2.3c0.2,0,0.3,0,0.3,0.1c0.1,0.1,0.1,0.2,0,0.4l-1.5,3.4c0.6,0,1,0.2,1.3,0.6c0.3,0.4,0.5,0.8,0.5,1.4
				v4.2c0,0.2,0,0.3-0.1,0.4c-0.1,0.1-0.2,0.1-0.4,0.1h-2.3c-0.2,0-0.3,0-0.4-0.1c-0.1-0.1-0.1-0.2-0.1-0.4v-2.9
				c0-0.2,0-0.3-0.1-0.4c-0.1-0.1-0.2-0.1-0.4-0.1h-2v3.4c0,0.2,0,0.3-0.1,0.4C19.2-18.4,19-18.3,18.9-18.3z"/>
		</g>
	</g>
</g>
<g>
	<g transform="translate(25.754722, 29.420965)">
		<g>
			<path class="st8" d="M0.8-18.5h-2.2c-0.2,0-0.3,0-0.4-0.1S-2-18.9-2-19.1v-9.6c0-0.2,0-0.3,0.1-0.4c0.1-0.1,0.2-0.1,0.4-0.1h1.5
				c0.2,0,0.3,0,0.5,0.1C0.7-29,0.8-28.9,1-28.8l2.9,3.3v-3.1c0-0.2,0-0.3,0.1-0.4c0.1-0.1,0.2-0.1,0.4-0.1h2.2c0.2,0,0.3,0,0.4,0.1
				c0.1,0.1,0.1,0.2,0.1,0.4v9.6c0,0.2,0,0.3-0.1,0.4s-0.2,0.1-0.4,0.1H4.4c-0.2,0-0.3,0-0.4-0.1c-0.1-0.1-0.1-0.2-0.1-0.4v-1.8
				l-2.5-3.1v4.9c0,0.2,0,0.3-0.1,0.4S1-18.5,0.8-18.5z"/>
		</g>
	</g>
</g>
<g>
	<g transform="translate(34.116319, 29.420965)">
		<g>
			<path class="st8" d="M8.2-18.5H1.3c-0.2,0-0.3,0-0.4-0.1s-0.1-0.2-0.1-0.4v-9.6c0-0.2,0-0.3,0.1-0.4c0.1-0.1,0.2-0.1,0.4-0.1h6.9
				c0.2,0,0.3,0,0.4,0.1c0.1,0.1,0.1,0.2,0.1,0.4v1.7c0,0.2,0,0.3-0.1,0.4c-0.1,0.1-0.2,0.1-0.4,0.1H4.1v1.1H7c0.2,0,0.3,0,0.4,0.1
				c0.1,0.1,0.1,0.2,0.1,0.4v1.6c0,0.2-0.1,0.3-0.1,0.4c-0.1,0.1-0.2,0.1-0.4,0.1H4.1v1.3h4.1c0.2,0,0.3,0,0.4,0.1
				c0.1,0.1,0.1,0.2,0.1,0.4v1.7c0,0.2,0,0.3-0.1,0.4S8.4-18.5,8.2-18.5z"/>
		</g>
	</g>
</g>
<g>
	<g transform="translate(41.378582, 29.420965)">
		<g>
			<path class="st8" d="M10.6-18.5H3.8c-0.2,0-0.3,0-0.4-0.1s-0.1-0.2-0.1-0.4v-9.6c0-0.2,0-0.3,0.1-0.4c0.1-0.1,0.2-0.1,0.4-0.1
				h6.9c0.2,0,0.3,0,0.4,0.1c0.1,0.1,0.1,0.2,0.1,0.4v1.7c0,0.2,0,0.3-0.1,0.4c-0.1,0.1-0.2,0.1-0.4,0.1H6.5v1.1h2.9
				c0.2,0,0.3,0,0.4,0.1C9.9-25,10-24.9,10-24.7v1.6c0,0.2-0.1,0.3-0.1,0.4c-0.1,0.1-0.2,0.1-0.4,0.1H6.5v1.3h4.1
				c0.2,0,0.3,0,0.4,0.1c0.1,0.1,0.1,0.2,0.1,0.4v1.7c0,0.2,0,0.3-0.1,0.4S10.8-18.5,10.6-18.5z"/>
		</g>
	</g>
</g>
<g>
	<g transform="translate(48.640844, 29.420965)">
		<g>
			<path class="st8" d="M10.7-18.5H8.3c-0.2,0-0.3,0-0.4-0.1c-0.1-0.1-0.1-0.2-0.1-0.4v-7.3H5.6c-0.2,0-0.3,0-0.4-0.1
				C5.1-26.5,5-26.7,5-26.9v-1.8c0-0.2,0-0.3,0.1-0.4c0.1-0.1,0.2-0.1,0.4-0.1h7.8c0.2,0,0.3,0,0.4,0.1c0.1,0.1,0.1,0.2,0.1,0.4v1.8
				c0,0.2-0.1,0.3-0.1,0.4c-0.1,0.1-0.2,0.1-0.4,0.1h-2.2v7.3c0,0.2,0,0.3-0.1,0.4C11-18.6,10.9-18.5,10.7-18.5z"/>
		</g>
	</g>
</g>
<g>
	<g transform="translate(55.925318, 29.420965)">
		<g>
			<path class="st8" d="M14.3-18.5H8.6c-0.2,0-0.3,0-0.4-0.1c-0.1-0.1-0.1-0.2-0.1-0.4v-9.6c0-0.2,0-0.3,0.1-0.4
				c0.1-0.1,0.2-0.1,0.4-0.1h4.7c1,0,1.7,0.2,2.1,0.6c0.5,0.4,0.7,0.9,0.7,1.7v0.7c0,0.4-0.1,0.8-0.2,1c-0.1,0.3-0.4,0.5-0.6,0.6
				c0.6,0.1,1.1,0.3,1.4,0.6c0.3,0.4,0.5,0.9,0.5,1.6v1.4c0,0.8-0.2,1.5-0.7,1.9C16-18.7,15.3-18.5,14.3-18.5z M11.4-26.7v1.6h1.2
				c0.2,0,0.3,0,0.4-0.1c0.1-0.1,0.1-0.2,0.1-0.5v-0.4c0-0.2-0.1-0.3-0.1-0.4c-0.1-0.1-0.2-0.1-0.4-0.1H11.4z M11.4-22.8v1.8h1.9
				c0.2,0,0.3,0,0.4-0.1c0.1-0.1,0.1-0.2,0.1-0.4v-0.6c0-0.2-0.1-0.3-0.1-0.4c-0.1-0.1-0.2-0.1-0.4-0.1H11.4z"/>
		</g>
	</g>
</g>
<g>
	<g transform="translate(63.975992, 29.420965)">
		<g>
			<path class="st8" d="M19.8-21.3c0,0.4-0.1,0.9-0.2,1.2c-0.1,0.4-0.4,0.7-0.7,1c-0.3,0.2-0.8,0.5-1.4,0.6
				c-0.6,0.2-1.4,0.2-2.3,0.2c-0.9,0-1.7-0.1-2.3-0.2c-0.6-0.2-1.1-0.4-1.4-0.6c-0.3-0.3-0.6-0.6-0.7-1c-0.1-0.4-0.2-0.8-0.2-1.2
				v-5.1c0-0.5,0.1-0.9,0.2-1.2c0.1-0.4,0.4-0.7,0.7-1c0.3-0.3,0.8-0.5,1.4-0.6c0.6-0.2,1.4-0.2,2.3-0.2c0.9,0,1.7,0.1,2.3,0.2
				c0.6,0.2,1.1,0.4,1.4,0.6c0.3,0.3,0.6,0.6,0.7,1c0.1,0.4,0.2,0.8,0.2,1.2V-21.3z M14-21.9c0,0.2,0.1,0.4,0.2,0.5
				c0.2,0.1,0.5,0.2,1,0.2c0.5,0,0.9-0.1,1-0.2c0.2-0.1,0.2-0.3,0.2-0.5v-4c0-0.2-0.1-0.4-0.2-0.5c-0.1-0.1-0.5-0.2-1-0.2
				c-0.5,0-0.9,0.1-1,0.2C14-26.2,14-26,14-25.8V-21.9z"/>
		</g>
	</g>
</g>
<g>
	<g transform="translate(72.159916, 29.420965)">
		<g>
			<path class="st8" d="M22.5-21.3c0,0.4-0.1,0.9-0.2,1.2c-0.1,0.4-0.4,0.7-0.7,1c-0.3,0.2-0.8,0.5-1.4,0.6
				c-0.6,0.2-1.4,0.2-2.3,0.2s-1.7-0.1-2.3-0.2c-0.6-0.2-1.1-0.4-1.4-0.6c-0.3-0.3-0.6-0.6-0.7-1c-0.1-0.4-0.2-0.8-0.2-1.2v-5.1
				c0-0.5,0.1-0.9,0.2-1.2c0.1-0.4,0.4-0.7,0.7-1c0.3-0.3,0.8-0.5,1.4-0.6c0.6-0.2,1.4-0.2,2.3-0.2s1.7,0.1,2.3,0.2
				c0.6,0.2,1.1,0.4,1.4,0.6c0.3,0.3,0.6,0.6,0.7,1c0.1,0.4,0.2,0.8,0.2,1.2V-21.3z M16.7-21.9c0,0.2,0.1,0.4,0.2,0.5
				c0.2,0.1,0.5,0.2,1,0.2c0.5,0,0.9-0.1,1-0.2c0.2-0.1,0.2-0.3,0.2-0.5v-4c0-0.2-0.1-0.4-0.2-0.5c-0.1-0.1-0.5-0.2-1-0.2
				c-0.5,0-0.9,0.1-1,0.2c-0.1,0.1-0.2,0.3-0.2,0.5V-21.9z"/>
		</g>
	</g>
</g>
<g>
	<g transform="translate(80.343839, 29.420965)">
		<g>
			<path class="st8" d="M19.1-18.5h-2.3c-0.2,0-0.3,0-0.4-0.1s-0.1-0.2-0.1-0.4v-9.6c0-0.2,0-0.3,0.1-0.4c0.1-0.1,0.2-0.1,0.4-0.1
				h2.3c0.2,0,0.3,0,0.4,0.1c0.1,0.1,0.1,0.2,0.1,0.4v3.4h0.6l1.5-3.4c0.1-0.2,0.2-0.3,0.3-0.4c0.1-0.1,0.3-0.1,0.5-0.1h2.3
				c0.2,0,0.3,0,0.3,0.1c0.1,0.1,0.1,0.2,0,0.4l-1.5,3.4c0.6,0,1,0.2,1.3,0.6c0.3,0.4,0.5,0.8,0.5,1.4v4.2c0,0.2,0,0.3-0.1,0.4
				s-0.2,0.1-0.4,0.1h-2.3c-0.2,0-0.3,0-0.4-0.1c-0.1-0.1-0.1-0.2-0.1-0.4v-2.9c0-0.2,0-0.3-0.1-0.4c-0.1-0.1-0.2-0.1-0.4-0.1h-2
				v3.4c0,0.2,0,0.3-0.1,0.4C19.4-18.6,19.2-18.5,19.1-18.5z"/>
		</g>
	</g>
</g>
<g>
	<g transform="translate(25.465202, 29.690947)">
		<g>
			<path class="st9" d="M0.7-18.4h-2.2c-0.2,0-0.3,0-0.4-0.1C-2-18.6-2.1-18.8-2.1-19v-9.6c0-0.2,0-0.3,0.1-0.4
				c0.1-0.1,0.2-0.1,0.4-0.1H0c0.2,0,0.3,0,0.5,0.1c0.1,0.1,0.3,0.2,0.4,0.3l2.9,3.3v-3.1c0-0.2,0-0.3,0.1-0.4
				c0.1-0.1,0.2-0.1,0.4-0.1h2.2c0.2,0,0.3,0,0.4,0.1C7-28.9,7-28.8,7-28.6v9.6c0,0.2,0,0.3-0.1,0.4c-0.1,0.1-0.2,0.1-0.4,0.1H4.3
				c-0.2,0-0.3,0-0.4-0.1c-0.1-0.1-0.1-0.2-0.1-0.4v-1.8l-2.5-3.1v4.9c0,0.2,0,0.3-0.1,0.4C1-18.5,0.9-18.4,0.7-18.4z"/>
		</g>
	</g>
</g>
<g>
	<g transform="translate(33.826799, 29.690947)">
		<g>
			<path class="st9" d="M8.1-18.4H1.3c-0.2,0-0.3,0-0.4-0.1c-0.1-0.1-0.1-0.2-0.1-0.4v-9.6c0-0.2,0-0.3,0.1-0.4
				c0.1-0.1,0.2-0.1,0.4-0.1h6.9c0.2,0,0.3,0,0.4,0.1c0.1,0.1,0.1,0.2,0.1,0.4v1.7c0,0.2,0,0.3-0.1,0.4s-0.2,0.1-0.4,0.1H4v1.1h2.9
				c0.2,0,0.3,0,0.4,0.1c0.1,0.1,0.1,0.2,0.1,0.4v1.6c0,0.2-0.1,0.3-0.1,0.4c-0.1,0.1-0.2,0.1-0.4,0.1H4v1.3h4.1
				c0.2,0,0.3,0,0.4,0.1s0.1,0.2,0.1,0.4v1.7c0,0.2,0,0.3-0.1,0.4C8.4-18.5,8.3-18.4,8.1-18.4z"/>
		</g>
	</g>
</g>
<g>
	<g transform="translate(41.089061, 29.690947)">
		<g>
			<path class="st9" d="M10.5-18.4H3.7c-0.2,0-0.3,0-0.4-0.1c-0.1-0.1-0.1-0.2-0.1-0.4v-9.6c0-0.2,0-0.3,0.1-0.4
				c0.1-0.1,0.2-0.1,0.4-0.1h6.9c0.2,0,0.3,0,0.4,0.1c0.1,0.1,0.1,0.2,0.1,0.4v1.7c0,0.2,0,0.3-0.1,0.4s-0.2,0.1-0.4,0.1H6.4v1.1
				h2.9c0.2,0,0.3,0,0.4,0.1c0.1,0.1,0.1,0.2,0.1,0.4v1.6c0,0.2-0.1,0.3-0.1,0.4c-0.1,0.1-0.2,0.1-0.4,0.1H6.4v1.3h4.1
				c0.2,0,0.3,0,0.4,0.1s0.1,0.2,0.1,0.4v1.7c0,0.2,0,0.3-0.1,0.4C10.9-18.5,10.7-18.4,10.5-18.4z"/>
		</g>
	</g>
</g>
<g>
	<g transform="translate(48.351324, 29.690947)">
		<g>
			<path class="st9" d="M10.6-18.4H8.2c-0.2,0-0.3,0-0.4-0.1c-0.1-0.1-0.1-0.2-0.1-0.4v-7.3H5.5c-0.2,0-0.3,0-0.4-0.1
				c-0.1-0.1-0.1-0.2-0.1-0.4v-1.8c0-0.2,0-0.3,0.1-0.4c0.1-0.1,0.2-0.1,0.4-0.1h7.8c0.2,0,0.3,0,0.4,0.1c0.1,0.1,0.1,0.2,0.1,0.4
				v1.8c0,0.2-0.1,0.3-0.1,0.4c-0.1,0.1-0.2,0.1-0.4,0.1h-2.2v7.3c0,0.2,0,0.3-0.1,0.4C10.9-18.5,10.8-18.4,10.6-18.4z"/>
		</g>
	</g>
</g>
<g>
	<g transform="translate(55.635798, 29.690947)">
		<g>
			<path class="st9" d="M14.2-18.4H8.5c-0.2,0-0.3,0-0.4-0.1C8-18.6,8-18.8,8-19v-9.6c0-0.2,0-0.3,0.1-0.4c0.1-0.1,0.2-0.1,0.4-0.1
				h4.7c1,0,1.7,0.2,2.1,0.6c0.5,0.4,0.7,0.9,0.7,1.7v0.7c0,0.4-0.1,0.8-0.2,1c-0.1,0.3-0.4,0.5-0.6,0.6c0.6,0.1,1.1,0.3,1.4,0.6
				c0.3,0.4,0.5,0.9,0.5,1.6v1.4c0,0.8-0.2,1.5-0.7,1.9C15.9-18.6,15.2-18.4,14.2-18.4z M11.3-26.6v1.6h1.2c0.2,0,0.3,0,0.4-0.1
				c0.1-0.1,0.1-0.2,0.1-0.5V-26c0-0.2-0.1-0.3-0.1-0.4c-0.1-0.1-0.2-0.1-0.4-0.1H11.3z M11.3-22.7v1.8h1.9c0.2,0,0.3,0,0.4-0.1
				c0.1-0.1,0.1-0.2,0.1-0.4v-0.6c0-0.2-0.1-0.3-0.1-0.4c-0.1-0.1-0.2-0.1-0.4-0.1H11.3z"/>
		</g>
	</g>
</g>
<g>
	<g transform="translate(63.686471, 29.690947)">
		<g>
			<path class="st9" d="M19.7-21.2c0,0.4-0.1,0.9-0.2,1.2c-0.1,0.4-0.4,0.7-0.7,1c-0.3,0.2-0.8,0.5-1.4,0.6
				c-0.6,0.2-1.4,0.2-2.3,0.2s-1.7-0.1-2.3-0.2c-0.6-0.2-1.1-0.4-1.4-0.6c-0.3-0.3-0.6-0.6-0.7-1c-0.1-0.4-0.2-0.8-0.2-1.2v-5.1
				c0-0.5,0.1-0.9,0.2-1.2c0.1-0.4,0.4-0.7,0.7-1c0.3-0.3,0.8-0.5,1.4-0.6c0.6-0.2,1.4-0.2,2.3-0.2s1.7,0.1,2.3,0.2
				c0.6,0.2,1.1,0.4,1.4,0.6c0.3,0.3,0.6,0.6,0.7,1c0.1,0.4,0.2,0.8,0.2,1.2V-21.2z M13.9-21.8c0,0.2,0.1,0.4,0.2,0.5
				c0.2,0.1,0.5,0.2,1,0.2c0.5,0,0.9-0.1,1-0.2c0.2-0.1,0.2-0.3,0.2-0.5v-4c0-0.2-0.1-0.4-0.2-0.5c-0.1-0.1-0.5-0.2-1-0.2
				c-0.5,0-0.9,0.1-1,0.2c-0.1,0.1-0.2,0.3-0.2,0.5V-21.8z"/>
		</g>
	</g>
</g>
<g>
	<g transform="translate(71.870395, 29.690947)">
		<g>
			<path class="st9" d="M22.4-21.2c0,0.4-0.1,0.9-0.2,1.2c-0.1,0.4-0.4,0.7-0.7,1c-0.3,0.2-0.8,0.5-1.4,0.6
				c-0.6,0.2-1.4,0.2-2.3,0.2c-0.9,0-1.7-0.1-2.3-0.2c-0.6-0.2-1.1-0.4-1.4-0.6c-0.3-0.3-0.6-0.6-0.7-1c-0.1-0.4-0.2-0.8-0.2-1.2
				v-5.1c0-0.5,0.1-0.9,0.2-1.2c0.1-0.4,0.4-0.7,0.7-1c0.3-0.3,0.8-0.5,1.4-0.6c0.6-0.2,1.4-0.2,2.3-0.2c0.9,0,1.7,0.1,2.3,0.2
				c0.6,0.2,1.1,0.4,1.4,0.6c0.3,0.3,0.6,0.6,0.7,1c0.1,0.4,0.2,0.8,0.2,1.2V-21.2z M16.6-21.8c0,0.2,0.1,0.4,0.2,0.5
				c0.2,0.1,0.5,0.2,1,0.2c0.5,0,0.9-0.1,1-0.2c0.2-0.1,0.2-0.3,0.2-0.5v-4c0-0.2-0.1-0.4-0.2-0.5c-0.1-0.1-0.5-0.2-1-0.2
				c-0.5,0-0.9,0.1-1,0.2c-0.1,0.1-0.2,0.3-0.2,0.5V-21.8z"/>
		</g>
	</g>
</g>
<g>
	<g transform="translate(80.054319, 29.690947)">
		<g>
			<path class="st9" d="M19-18.4h-2.3c-0.2,0-0.3,0-0.4-0.1c-0.1-0.1-0.1-0.2-0.1-0.4v-9.6c0-0.2,0-0.3,0.1-0.4
				c0.1-0.1,0.2-0.1,0.4-0.1H19c0.2,0,0.3,0,0.4,0.1c0.1,0.1,0.1,0.2,0.1,0.4v3.4h0.6l1.5-3.4c0.1-0.2,0.2-0.3,0.3-0.4
				c0.1-0.1,0.3-0.1,0.5-0.1h2.3c0.2,0,0.3,0,0.3,0.1c0.1,0.1,0.1,0.2,0,0.4l-1.5,3.4c0.6,0,1,0.2,1.3,0.6c0.3,0.4,0.5,0.8,0.5,1.4
				v4.2c0,0.2,0,0.3-0.1,0.4c-0.1,0.1-0.2,0.1-0.4,0.1h-2.3c-0.2,0-0.3,0-0.4-0.1c-0.1-0.1-0.1-0.2-0.1-0.4v-2.9
				c0-0.2,0-0.3-0.1-0.4c-0.1-0.1-0.2-0.1-0.4-0.1h-2v3.4c0,0.2,0,0.3-0.1,0.4C19.3-18.5,19.1-18.4,19-18.4z"/>
		</g>
	</g>
</g>
</svg>
