<?xml version="1.0" encoding="utf-8"?>
<!-- Generator: Adobe Illustrator 26.2.1, SVG Export Plug-In . SVG Version: 6.00 Build 0)  -->
<svg version="1.1" id="Layer_1" xmlns="http://www.w3.org/2000/svg" xmlns:xlink="http://www.w3.org/1999/xlink" x="0px" y="0px"
	 viewBox="0 0 125 75" style="enable-background:new 0 0 125 75;" xml:space="preserve">
<style type="text/css">
	.st0{clip-path:url(#SVGID_00000029726717176813111610000000247959878694590884_);}
	.st1{fill:#FFFFFF;}
	.st2{clip-path:url(#SVGID_00000129184743766755055410000004084782109431047853_);}
	.st3{fill:#E67C6C;}
	.st4{clip-path:url(#SVGID_00000051344252961758319140000011644036271940672944_);}
	.st5{fill:#63C8DF;}
	.st6{fill:#746244;}
	.st7{fill:#FF00FF;}
	.st8{fill:#00FFFF;}
	.st9{fill:#FFBD59;}
</style>
<g>
	<defs>
		<rect id="SVGID_1_" x="15.5" y="29.6" width="65.1" height="9.9"/>
	</defs>
	<clipPath id="SVGID_00000033333805926206345380000004741205541536978091_">
		<use xlink:href="#SVGID_1_"  style="overflow:visible;"/>
	</clipPath>
	<g style="clip-path:url(#SVGID_00000033333805926206345380000004741205541536978091_);">
		<path class="st1" d="M15.5,29.6h65.3v11.2H15.5V29.6z"/>
		<path class="st1" d="M15.5,29.6h65.3v9.9H15.5V29.6z"/>
		<path class="st1" d="M15.5,29.6h65.3v9.9H15.5V29.6z"/>
		<path class="st1" d="M15.5,29.6h65.3v9.9H15.5V29.6z"/>
	</g>
</g>
<g>
	<defs>
		<rect id="SVGID_00000060015233797163239180000010593136266559062167_" x="16.5" y="29.6" width="13.8" height="9.1"/>
	</defs>
	<clipPath id="SVGID_00000110463042131880770430000008108221872507627648_">
		<use xlink:href="#SVGID_00000060015233797163239180000010593136266559062167_"  style="overflow:visible;"/>
	</clipPath>
	<g style="clip-path:url(#SVGID_00000110463042131880770430000008108221872507627648_);">
		<path class="st3" d="M17,30.4v8.2h12.8v-8.2h-0.3v7.7c0,0,0,0.1-0.1,0.1c-1.4-0.4-2.8-0.4-4.2-0.3c-0.6,0.1-1.3,0.1-1.9,0.3
			c0,0,0,0,0,0c0,0,0,0,0,0c-0.6-0.2-1.3-0.2-1.9-0.3c-1.4-0.1-2.8-0.1-4.2,0.3c0,0-0.1,0-0.1-0.1v-7.7H17z"/>
		<path class="st1" d="M29.4,30.4c-0.1,0-0.2-0.1-0.3-0.1c-0.2-0.1-0.4-0.2-0.7-0.2c0,0,0,0,0,0c-1.7-0.5-3.4-0.4-5,0.3v7.6
			c0.6-0.2,1.2-0.2,1.8-0.3c1.4-0.1,2.8-0.1,4.1,0.3L29.4,30.4C29.4,30.5,29.4,30.4,29.4,30.4z M22.4,30.1c-1.5-0.4-3.1-0.4-4.6,0.1
			c-0.2,0.1-0.3,0.1-0.5,0.2c0,0,0,0-0.1,0c0,0,0,0.1,0,0.2v7.5c1.3-0.3,2.8-0.4,4.1-0.3c0.6,0.1,1.2,0.1,1.8,0.3v-7.6
			C23,30.3,22.7,30.2,22.4,30.1C22.4,30.1,22.4,30.1,22.4,30.1z"/>
	</g>
</g>
<g>
	<defs>
		<rect id="SVGID_00000074426862760991918270000004673744407478405250_" x="16.5" y="29.6" width="13.8" height="9.9"/>
	</defs>
	<clipPath id="SVGID_00000051354127294100097010000009653450727588882862_">
		<use xlink:href="#SVGID_00000074426862760991918270000004673744407478405250_"  style="overflow:visible;"/>
	</clipPath>
	<g style="clip-path:url(#SVGID_00000051354127294100097010000009653450727588882862_);">
		<path class="st5" d="M23.9,30.1h-1.1c0.2,0.1,0.4,0.1,0.5,0.2C23.5,30.2,23.7,30.2,23.9,30.1z M28.9,30.1c0.2,0.1,0.4,0.1,0.5,0.2
			c0,0,0,0,0,0h0.4c0,0,0.1,0,0.1,0.1v8.3c0,0,0,0.1-0.1,0.1H16.9c0,0-0.1,0-0.1-0.1v-8.3c0,0,0-0.1,0.1-0.1h0.4c0,0,0,0,0,0
			c0.1-0.1,0.2-0.1,0.4-0.1c0.1,0,0.1,0,0.2-0.1h-1.2V39h6c0,0,0,0,0,0c0,0,0,0,0,0c0.1,0.3,0.4,0.2,0.7,0.2c0.2,0,0.6,0.1,0.7-0.2
			c0,0,0,0,0,0c0,0,0,0,0,0h6.1v-8.9H28.9z"/>
		<path class="st6" d="M30.2,30h-1.7c-0.1,0-0.2,0-0.3-0.1c-1-0.2-1.9-0.3-2.9-0.2c-0.4,0-0.7,0.1-1.1,0.2h-1.8
			c-1.4-0.4-2.9-0.4-4.2,0h-1.7c0,0-0.1,0-0.1,0.1v9c0,0,0,0.1,0.1,0.1h6.1c0.1,0.3,0.5,0.3,0.8,0.3c0.3,0,0.6,0,0.8-0.3h6.1
			c0,0,0.1,0,0.1-0.1L30.2,30C30.3,30,30.3,30,30.2,30z M28.4,30.1C28.5,30.1,28.5,30.1,28.4,30.1L28.4,30.1
			c0.3,0.1,0.5,0.1,0.7,0.2c0.1,0,0.2,0.1,0.3,0.1c0,0,0,0,0,0v7.6c-1.3-0.3-2.8-0.4-4.1-0.3c-0.6,0.1-1.2,0.1-1.8,0.3v-7.6
			C25,29.7,26.8,29.6,28.4,30.1z M17.3,38.2c1.4-0.4,2.8-0.4,4.2-0.3c0.6,0.1,1.3,0.1,1.9,0.3c0,0,0,0,0,0c0,0,0,0,0,0
			c0.6-0.2,1.3-0.2,1.9-0.3c1.4-0.1,2.8-0.1,4.2,0.3c0,0,0.1,0,0.1-0.1v-7.7h0.3v8.2H17v-8.2h0.2L17.3,38.2
			C17.2,38.2,17.2,38.2,17.3,38.2z M17.3,30.4C17.3,30.4,17.3,30.4,17.3,30.4C17.3,30.4,17.3,30.4,17.3,30.4z M23.9,30.1
			c-0.2,0.1-0.4,0.1-0.5,0.2c-0.2-0.1-0.3-0.2-0.5-0.2H23.9z M22.4,30.1C22.4,30.1,22.4,30.1,22.4,30.1c0.3,0.1,0.6,0.2,0.9,0.3v7.6
			c-0.6-0.2-1.2-0.2-1.8-0.3c-1.4-0.1-2.8-0.1-4.1,0.3v-7.5c0,0,0-0.1,0-0.2c0,0,0,0,0.1,0c0.2-0.1,0.3-0.1,0.5-0.2
			C19.3,29.7,21,29.6,22.4,30.1z M30.2,39h-6.1c0,0,0,0,0,0c0,0,0,0,0,0c-0.1,0.3-0.4,0.2-0.7,0.2c-0.2,0-0.6,0.1-0.7-0.2
			c0,0,0,0,0,0c0,0,0,0,0,0h-6v-8.9h1.2c-0.1,0-0.1,0-0.2,0.1c-0.1,0-0.2,0.1-0.4,0.1c0,0,0,0,0,0h-0.4c0,0-0.1,0-0.1,0.1v8.3
			c0,0,0,0.1,0.1,0.1h12.9c0,0,0.1,0,0.1-0.1v-8.3c0,0,0-0.1-0.1-0.1h-0.4c0,0,0,0,0,0c-0.2-0.1-0.3-0.1-0.5-0.2h1.3V39z"/>
	</g>
</g>
<g>
	<g transform="translate(25.311146, 28.025134)">
		<g>
			<path class="st7" d="M10.5,9.3H9.3c-0.1,0-0.2,0-0.2-0.1C9,9.2,9,9.1,9,9.1V3.7c0-0.1,0-0.2,0.1-0.2c0.1,0,0.1-0.1,0.2-0.1h0.9
				c0.1,0,0.2,0,0.2,0c0.1,0,0.2,0.1,0.2,0.2l1.6,1.8V3.7c0-0.1,0-0.2,0.1-0.2c0.1,0,0.1-0.1,0.2-0.1h1.2c0.1,0,0.2,0,0.2,0.1
				c0.1,0,0.1,0.1,0.1,0.2v5.3c0,0.1,0,0.2-0.1,0.2c0,0-0.1,0.1-0.2,0.1h-1.2c-0.1,0-0.2,0-0.2-0.1c0-0.1-0.1-0.1-0.1-0.2V8
				l-1.4-1.7v2.7c0,0.1,0,0.2-0.1,0.2C10.7,9.3,10.6,9.3,10.5,9.3z"/>
		</g>
	</g>
</g>
<g>
	<g transform="translate(29.953281, 28.025134)">
		<g>
			<path class="st7" d="M14.7,9.3h-3.8c-0.1,0-0.2,0-0.2-0.1c0-0.1-0.1-0.1-0.1-0.2V3.7c0-0.1,0-0.2,0.1-0.2c0.1,0,0.1-0.1,0.2-0.1
				h3.8c0.1,0,0.2,0,0.2,0.1c0.1,0,0.1,0.1,0.1,0.2v1c0,0.1,0,0.2-0.1,0.2c0,0-0.1,0.1-0.2,0.1h-2.3v0.6H14c0.1,0,0.2,0,0.2,0.1
				c0.1,0,0.1,0.1,0.1,0.2v0.9c0,0.1,0,0.2-0.1,0.2c0,0-0.1,0.1-0.2,0.1h-1.6v0.7h2.3c0.1,0,0.2,0,0.2,0.1C14.9,7.9,15,8,15,8.1v1
				c0,0.1,0,0.2-0.1,0.2C14.8,9.3,14.8,9.3,14.7,9.3z"/>
		</g>
	</g>
</g>
<g>
	<g transform="translate(33.985098, 28.025134)">
		<g>
			<path class="st7" d="M16,9.3h-3.8c-0.1,0-0.2,0-0.2-0.1c0-0.1-0.1-0.1-0.1-0.2V3.7c0-0.1,0-0.2,0.1-0.2c0.1,0,0.1-0.1,0.2-0.1H16
				c0.1,0,0.2,0,0.2,0.1c0.1,0,0.1,0.1,0.1,0.2v1c0,0.1,0,0.2-0.1,0.2c0,0-0.1,0.1-0.2,0.1h-2.3v0.6h1.6c0.1,0,0.2,0,0.2,0.1
				c0.1,0,0.1,0.1,0.1,0.2v0.9c0,0.1,0,0.2-0.1,0.2c0,0-0.1,0.1-0.2,0.1h-1.6v0.7H16c0.1,0,0.2,0,0.2,0.1c0.1,0,0.1,0.1,0.1,0.2v1
				c0,0.1,0,0.2-0.1,0.2C16.2,9.3,16.1,9.3,16,9.3z"/>
		</g>
	</g>
</g>
<g>
	<g transform="translate(38.016914, 28.025134)">
		<g>
			<path class="st7" d="M16,9.3h-1.3c-0.1,0-0.2,0-0.2-0.1c0-0.1-0.1-0.1-0.1-0.2V5h-1.2C13.1,5,13,5,13,4.9c0-0.1-0.1-0.1-0.1-0.2
				v-1c0-0.1,0-0.2,0.1-0.2c0.1,0,0.1-0.1,0.2-0.1h4.4c0.1,0,0.2,0,0.2,0.1c0.1,0,0.1,0.1,0.1,0.2v1c0,0.1,0,0.2-0.1,0.2
				c0,0-0.1,0.1-0.2,0.1h-1.2v4c0,0.1,0,0.2-0.1,0.2C16.2,9.3,16.1,9.3,16,9.3z"/>
		</g>
	</g>
</g>
<g>
	<g transform="translate(42.061061, 28.025134)">
		<g>
			<path class="st7" d="M18,9.3h-3.2c-0.1,0-0.2,0-0.2-0.1c0-0.1-0.1-0.1-0.1-0.2V3.7c0-0.1,0-0.2,0.1-0.2c0.1,0,0.1-0.1,0.2-0.1
				h2.6c0.5,0,0.9,0.1,1.2,0.3c0.3,0.2,0.4,0.5,0.4,0.9v0.4c0,0.2,0,0.4-0.1,0.6c-0.1,0.1-0.2,0.2-0.4,0.3c0.3,0,0.6,0.1,0.8,0.4
				c0.2,0.2,0.3,0.5,0.3,0.9V8c0,0.5-0.1,0.8-0.4,1C19,9.2,18.6,9.3,18,9.3z M16.4,4.8v0.9h0.7c0.1,0,0.2,0,0.2-0.1
				c0.1-0.1,0.1-0.1,0.1-0.2V5.2c0-0.1,0-0.2-0.1-0.2c-0.1-0.1-0.1-0.1-0.2-0.1H16.4z M16.4,7v1h1.1c0.1,0,0.2,0,0.2-0.1
				c0.1-0.1,0.1-0.1,0.1-0.2V7.3c0-0.1,0-0.2-0.1-0.2C17.7,7,17.6,7,17.5,7H16.4z"/>
		</g>
	</g>
</g>
<g>
	<g transform="translate(46.530582, 28.025134)">
		<g>
			<path class="st7" d="M21.1,7.8c0,0.3,0,0.5-0.1,0.7c-0.1,0.2-0.2,0.4-0.4,0.5c-0.2,0.1-0.5,0.2-0.8,0.3c-0.3,0.1-0.8,0.1-1.2,0.1
				c-0.5,0-0.9,0-1.3-0.1c-0.3-0.1-0.6-0.2-0.8-0.3c-0.2-0.2-0.3-0.3-0.4-0.5C16,8.3,16,8,16,7.8V5c0-0.3,0-0.5,0.1-0.7
				c0.1-0.2,0.2-0.4,0.4-0.5c0.2-0.2,0.5-0.3,0.8-0.4c0.3-0.1,0.8-0.1,1.3-0.1c0.5,0,0.9,0,1.2,0.1c0.3,0.1,0.6,0.2,0.8,0.4
				c0.2,0.1,0.3,0.3,0.4,0.5c0.1,0.2,0.1,0.4,0.1,0.7V7.8z M17.9,7.5c0,0.1,0,0.2,0.1,0.3c0.1,0.1,0.3,0.1,0.6,0.1
				c0.3,0,0.5,0,0.6-0.1c0.1-0.1,0.1-0.2,0.1-0.3V5.3c0-0.1,0-0.2-0.1-0.3c-0.1-0.1-0.3-0.1-0.6-0.1c-0.3,0-0.5,0-0.6,0.1
				c-0.1,0.1-0.1,0.2-0.1,0.3V7.5z"/>
		</g>
	</g>
</g>
<g>
	<g transform="translate(51.07408, 28.025134)">
		<g>
			<path class="st7" d="M22.6,7.8c0,0.3,0,0.5-0.1,0.7c-0.1,0.2-0.2,0.4-0.4,0.5c-0.2,0.1-0.5,0.2-0.8,0.3c-0.3,0.1-0.8,0.1-1.2,0.1
				c-0.5,0-0.9,0-1.3-0.1C18.5,9.3,18.2,9.1,18,9c-0.2-0.2-0.3-0.3-0.4-0.5c-0.1-0.2-0.1-0.4-0.1-0.7V5c0-0.3,0-0.5,0.1-0.7
				c0.1-0.2,0.2-0.4,0.4-0.5c0.2-0.2,0.5-0.3,0.8-0.4c0.3-0.1,0.8-0.1,1.3-0.1c0.5,0,0.9,0,1.2,0.1c0.3,0.1,0.6,0.2,0.8,0.4
				c0.2,0.1,0.3,0.3,0.4,0.5c0.1,0.2,0.1,0.4,0.1,0.7V7.8z M19.4,7.5c0,0.1,0,0.2,0.1,0.3c0.1,0.1,0.3,0.1,0.6,0.1
				c0.3,0,0.5,0,0.6-0.1c0.1-0.1,0.1-0.2,0.1-0.3V5.3c0-0.1,0-0.2-0.1-0.3c-0.1-0.1-0.3-0.1-0.6-0.1c-0.3,0-0.5,0-0.6,0.1
				c-0.1,0.1-0.1,0.2-0.1,0.3V7.5z"/>
		</g>
	</g>
</g>
<g>
	<g transform="translate(55.617577, 28.025134)">
		<g>
			<path class="st7" d="M20.7,9.3h-1.3c-0.1,0-0.2,0-0.2-0.1c0-0.1-0.1-0.1-0.1-0.2V3.7c0-0.1,0-0.2,0.1-0.2c0.1,0,0.1-0.1,0.2-0.1
				h1.3c0.1,0,0.2,0,0.2,0.1c0.1,0,0.1,0.1,0.1,0.2v1.9h0.3l0.8-1.9c0-0.1,0.1-0.2,0.2-0.2c0.1,0,0.2-0.1,0.2-0.1h1.3
				c0.1,0,0.2,0,0.2,0.1c0,0,0,0.1,0,0.2l-0.9,1.9c0.3,0,0.6,0.1,0.8,0.3c0.2,0.2,0.3,0.5,0.3,0.8v2.3c0,0.1,0,0.2-0.1,0.2
				c0,0-0.1,0.1-0.2,0.1h-1.3c-0.1,0-0.2,0-0.2-0.1c0-0.1-0.1-0.1-0.1-0.2V7.4c0-0.1,0-0.2-0.1-0.2c0-0.1-0.1-0.1-0.2-0.1H21v1.9
				c0,0.1,0,0.2-0.1,0.2C20.9,9.3,20.8,9.3,20.7,9.3z"/>
		</g>
	</g>
</g>
<g>
	<g transform="translate(25.632387, 27.725572)">
		<g>
			<path class="st8" d="M10.6,9.2H9.4c-0.1,0-0.2,0-0.2-0.1C9.1,9.1,9.1,9,9.1,9V3.6c0-0.1,0-0.2,0.1-0.2c0.1,0,0.1-0.1,0.2-0.1h0.9
				c0.1,0,0.2,0,0.2,0c0.1,0,0.2,0.1,0.2,0.2l1.6,1.8V3.6c0-0.1,0-0.2,0.1-0.2c0.1,0,0.1-0.1,0.2-0.1h1.2c0.1,0,0.2,0,0.2,0.1
				c0.1,0,0.1,0.1,0.1,0.2V9c0,0.1,0,0.2-0.1,0.2c0,0-0.1,0.1-0.2,0.1h-1.2c-0.1,0-0.2,0-0.2-0.1c0-0.1-0.1-0.1-0.1-0.2v-1l-1.4-1.7
				V9c0,0.1,0,0.2-0.1,0.2C10.8,9.2,10.7,9.2,10.6,9.2z"/>
		</g>
	</g>
</g>
<g>
	<g transform="translate(30.274522, 27.725572)">
		<g>
			<path class="st8" d="M14.8,9.2h-3.8c-0.1,0-0.2,0-0.2-0.1c0-0.1-0.1-0.1-0.1-0.2V3.6c0-0.1,0-0.2,0.1-0.2c0.1,0,0.1-0.1,0.2-0.1
				h3.8c0.1,0,0.2,0,0.2,0.1c0.1,0,0.1,0.1,0.1,0.2v1c0,0.1,0,0.2-0.1,0.2c0,0-0.1,0.1-0.2,0.1h-2.3v0.6h1.6c0.1,0,0.2,0,0.2,0.1
				c0.1,0,0.1,0.1,0.1,0.2v0.9c0,0.1,0,0.2-0.1,0.2c0,0-0.1,0.1-0.2,0.1h-1.6v0.7h2.3c0.1,0,0.2,0,0.2,0.1c0.1,0,0.1,0.1,0.1,0.2v1
				c0,0.1,0,0.2-0.1,0.2C14.9,9.2,14.9,9.2,14.8,9.2z"/>
		</g>
	</g>
</g>
<g>
	<g transform="translate(34.306339, 27.725572)">
		<g>
			<path class="st8" d="M16.1,9.2h-3.8c-0.1,0-0.2,0-0.2-0.1C12,9.1,12,9,12,9V3.6c0-0.1,0-0.2,0.1-0.2c0.1,0,0.1-0.1,0.2-0.1h3.8
				c0.1,0,0.2,0,0.2,0.1c0.1,0,0.1,0.1,0.1,0.2v1c0,0.1,0,0.2-0.1,0.2c0,0-0.1,0.1-0.2,0.1h-2.3v0.6h1.6c0.1,0,0.2,0,0.2,0.1
				c0.1,0,0.1,0.1,0.1,0.2v0.9c0,0.1,0,0.2-0.1,0.2c0,0-0.1,0.1-0.2,0.1h-1.6v0.7h2.3c0.1,0,0.2,0,0.2,0.1c0.1,0,0.1,0.1,0.1,0.2v1
				c0,0.1,0,0.2-0.1,0.2C16.3,9.2,16.2,9.2,16.1,9.2z"/>
		</g>
	</g>
</g>
<g>
	<g transform="translate(38.338156, 27.725572)">
		<g>
			<path class="st8" d="M16.2,9.2h-1.3c-0.1,0-0.2,0-0.2-0.1c0-0.1-0.1-0.1-0.1-0.2v-4h-1.2c-0.1,0-0.2,0-0.2-0.1
				C13,4.8,13,4.7,13,4.6v-1c0-0.1,0-0.2,0.1-0.2c0.1,0,0.1-0.1,0.2-0.1h4.4c0.1,0,0.2,0,0.2,0.1c0.1,0,0.1,0.1,0.1,0.2v1
				c0,0.1,0,0.2-0.1,0.2c0,0-0.1,0.1-0.2,0.1h-1.2v4c0,0.1,0,0.2-0.1,0.2C16.3,9.2,16.2,9.2,16.2,9.2z"/>
		</g>
	</g>
</g>
<g>
	<g transform="translate(42.382303, 27.725572)">
		<g>
			<path class="st8" d="M18.1,9.2H15c-0.1,0-0.2,0-0.2-0.1c0-0.1-0.1-0.1-0.1-0.2V3.6c0-0.1,0-0.2,0.1-0.2c0.1,0,0.1-0.1,0.2-0.1
				h2.6c0.5,0,0.9,0.1,1.2,0.3c0.3,0.2,0.4,0.5,0.4,0.9V5c0,0.2,0,0.4-0.1,0.6c-0.1,0.1-0.2,0.2-0.4,0.3c0.3,0,0.6,0.1,0.8,0.4
				c0.2,0.2,0.3,0.5,0.3,0.9v0.8c0,0.5-0.1,0.8-0.4,1C19.1,9.1,18.7,9.2,18.1,9.2z M16.5,4.7v0.9h0.7c0.1,0,0.2,0,0.2-0.1
				c0.1-0.1,0.1-0.1,0.1-0.2V5.1c0-0.1,0-0.2-0.1-0.2c-0.1-0.1-0.1-0.1-0.2-0.1H16.5z M16.5,6.9v1h1.1c0.1,0,0.2,0,0.2-0.1
				c0.1-0.1,0.1-0.1,0.1-0.2V7.2c0-0.1,0-0.2-0.1-0.2c0-0.1-0.1-0.1-0.2-0.1H16.5z"/>
		</g>
	</g>
</g>
<g>
	<g transform="translate(46.851824, 27.725572)">
		<g>
			<path class="st8" d="M21.2,7.7c0,0.3,0,0.5-0.1,0.7c-0.1,0.2-0.2,0.4-0.4,0.5c-0.2,0.1-0.5,0.2-0.8,0.3c-0.3,0.1-0.8,0.1-1.2,0.1
				c-0.5,0-0.9,0-1.3-0.1c-0.3-0.1-0.6-0.2-0.8-0.3c-0.2-0.2-0.3-0.3-0.4-0.5c-0.1-0.2-0.1-0.4-0.1-0.7V4.9c0-0.3,0-0.5,0.1-0.7
				c0.1-0.2,0.2-0.4,0.4-0.5c0.2-0.2,0.5-0.3,0.8-0.4c0.3-0.1,0.8-0.1,1.3-0.1c0.5,0,0.9,0,1.2,0.1c0.3,0.1,0.6,0.2,0.8,0.4
				C20.9,3.8,21,4,21.1,4.2c0.1,0.2,0.1,0.4,0.1,0.7V7.7z M18,7.4c0,0.1,0,0.2,0.1,0.3c0.1,0.1,0.3,0.1,0.6,0.1c0.3,0,0.5,0,0.6-0.1
				c0.1-0.1,0.1-0.2,0.1-0.3V5.2c0-0.1,0-0.2-0.1-0.3c-0.1-0.1-0.3-0.1-0.6-0.1c-0.3,0-0.5,0-0.6,0.1C18,5,18,5.1,18,5.2V7.4z"/>
		</g>
	</g>
</g>
<g>
	<g transform="translate(51.395321, 27.725572)">
		<g>
			<path class="st8" d="M22.7,7.7c0,0.3,0,0.5-0.1,0.7c-0.1,0.2-0.2,0.4-0.4,0.5C22,9,21.8,9.2,21.4,9.2c-0.3,0.1-0.8,0.1-1.2,0.1
				c-0.5,0-0.9,0-1.3-0.1c-0.3-0.1-0.6-0.2-0.8-0.3c-0.2-0.2-0.3-0.3-0.4-0.5c-0.1-0.2-0.1-0.4-0.1-0.7V4.9c0-0.3,0-0.5,0.1-0.7
				c0.1-0.2,0.2-0.4,0.4-0.5c0.2-0.2,0.5-0.3,0.8-0.4c0.3-0.1,0.8-0.1,1.3-0.1c0.5,0,0.9,0,1.2,0.1c0.3,0.1,0.6,0.2,0.8,0.4
				c0.2,0.1,0.3,0.3,0.4,0.5c0.1,0.2,0.1,0.4,0.1,0.7V7.7z M19.5,7.4c0,0.1,0,0.2,0.1,0.3c0.1,0.1,0.3,0.1,0.6,0.1
				c0.3,0,0.5,0,0.6-0.1c0.1-0.1,0.1-0.2,0.1-0.3V5.2c0-0.1,0-0.2-0.1-0.3c-0.1-0.1-0.3-0.1-0.6-0.1c-0.3,0-0.5,0-0.6,0.1
				c-0.1,0.1-0.1,0.2-0.1,0.3V7.4z"/>
		</g>
	</g>
</g>
<g>
	<g transform="translate(55.938819, 27.725572)">
		<g>
			<path class="st8" d="M20.8,9.2h-1.3c-0.1,0-0.2,0-0.2-0.1c0-0.1-0.1-0.1-0.1-0.2V3.6c0-0.1,0-0.2,0.1-0.2c0.1,0,0.1-0.1,0.2-0.1
				h1.3c0.1,0,0.2,0,0.2,0.1c0.1,0,0.1,0.1,0.1,0.2v1.9h0.3l0.8-1.9c0-0.1,0.1-0.2,0.2-0.2c0.1,0,0.2-0.1,0.2-0.1h1.3
				c0.1,0,0.2,0,0.2,0.1c0,0,0,0.1,0,0.2l-0.9,1.9c0.3,0,0.6,0.1,0.8,0.3c0.2,0.2,0.3,0.5,0.3,0.8V9c0,0.1,0,0.2-0.1,0.2
				c0,0-0.1,0.1-0.2,0.1h-1.3c-0.1,0-0.2,0-0.2-0.1c0-0.1-0.1-0.1-0.1-0.2V7.3c0-0.1,0-0.2-0.1-0.2c0-0.1-0.1-0.1-0.2-0.1h-1.1V9
				c0,0.1,0,0.2-0.1,0.2C21,9.2,20.9,9.2,20.8,9.2z"/>
		</g>
	</g>
</g>
<g>
	<g transform="translate(25.471767, 27.875353)">
		<g>
			<path class="st9" d="M10.6,9.3H9.3c-0.1,0-0.2,0-0.2-0.1c0-0.1-0.1-0.1-0.1-0.2V3.7c0-0.1,0-0.2,0.1-0.2c0.1,0,0.1-0.1,0.2-0.1
				h0.9c0.1,0,0.2,0,0.2,0c0.1,0,0.2,0.1,0.2,0.2l1.6,1.8V3.7c0-0.1,0-0.2,0.1-0.2c0.1,0,0.1-0.1,0.2-0.1h1.2c0.1,0,0.2,0,0.2,0.1
				c0.1,0,0.1,0.1,0.1,0.2V9c0,0.1,0,0.2-0.1,0.2c0,0-0.1,0.1-0.2,0.1h-1.2c-0.1,0-0.2,0-0.2-0.1c0-0.1-0.1-0.1-0.1-0.2V8l-1.4-1.7
				V9c0,0.1,0,0.2-0.1,0.2C10.8,9.3,10.7,9.3,10.6,9.3z"/>
		</g>
	</g>
</g>
<g>
	<g transform="translate(30.113902, 27.875353)">
		<g>
			<path class="st9" d="M14.7,9.3h-3.8c-0.1,0-0.2,0-0.2-0.1c0-0.1-0.1-0.1-0.1-0.2V3.7c0-0.1,0-0.2,0.1-0.2c0.1,0,0.1-0.1,0.2-0.1
				h3.8c0.1,0,0.2,0,0.2,0.1C15,3.5,15,3.6,15,3.7v1c0,0.1,0,0.2-0.1,0.2c0,0-0.1,0.1-0.2,0.1h-2.3v0.6h1.6c0.1,0,0.2,0,0.2,0.1
				c0.1,0,0.1,0.1,0.1,0.2v0.9c0,0.1,0,0.2-0.1,0.2c0,0-0.1,0.1-0.2,0.1h-1.6v0.7h2.3c0.1,0,0.2,0,0.2,0.1C15,7.9,15,7.9,15,8v1
				c0,0.1,0,0.2-0.1,0.2C14.9,9.3,14.8,9.3,14.7,9.3z"/>
		</g>
	</g>
</g>
<g>
	<g transform="translate(34.145718, 27.875353)">
		<g>
			<path class="st9" d="M16.1,9.3h-3.8c-0.1,0-0.2,0-0.2-0.1c0-0.1-0.1-0.1-0.1-0.2V3.7c0-0.1,0-0.2,0.1-0.2c0.1,0,0.1-0.1,0.2-0.1
				h3.8c0.1,0,0.2,0,0.2,0.1c0.1,0,0.1,0.1,0.1,0.2v1c0,0.1,0,0.2-0.1,0.2c0,0-0.1,0.1-0.2,0.1h-2.3v0.6h1.6c0.1,0,0.2,0,0.2,0.1
				c0.1,0,0.1,0.1,0.1,0.2v0.9c0,0.1,0,0.2-0.1,0.2c0,0-0.1,0.1-0.2,0.1h-1.6v0.7h2.3c0.1,0,0.2,0,0.2,0.1c0.1,0,0.1,0.1,0.1,0.2v1
				c0,0.1,0,0.2-0.1,0.2C16.2,9.3,16.2,9.3,16.1,9.3z"/>
		</g>
	</g>
</g>
<g>
	<g transform="translate(38.177535, 27.875353)">
		<g>
			<path class="st9" d="M16.1,9.3h-1.3c-0.1,0-0.2,0-0.2-0.1c0-0.1-0.1-0.1-0.1-0.2V5h-1.2c-0.1,0-0.2,0-0.2-0.1
				C13,4.8,13,4.8,13,4.7v-1c0-0.1,0-0.2,0.1-0.2c0.1,0,0.1-0.1,0.2-0.1h4.4c0.1,0,0.2,0,0.2,0.1c0.1,0,0.1,0.1,0.1,0.2v1
				c0,0.1,0,0.2-0.1,0.2c0,0-0.1,0.1-0.2,0.1h-1.2v4c0,0.1,0,0.2-0.1,0.2C16.3,9.3,16.2,9.3,16.1,9.3z"/>
		</g>
	</g>
</g>
<g>
	<g transform="translate(42.221682, 27.875353)">
		<g>
			<path class="st9" d="M18.1,9.3h-3.2c-0.1,0-0.2,0-0.2-0.1c0-0.1-0.1-0.1-0.1-0.2V3.7c0-0.1,0-0.2,0.1-0.2c0.1,0,0.1-0.1,0.2-0.1
				h2.6c0.5,0,0.9,0.1,1.2,0.3c0.3,0.2,0.4,0.5,0.4,0.9V5c0,0.2,0,0.4-0.1,0.6c-0.1,0.1-0.2,0.2-0.4,0.3c0.3,0,0.6,0.1,0.8,0.4
				c0.2,0.2,0.3,0.5,0.3,0.9v0.8c0,0.5-0.1,0.8-0.4,1C19,9.2,18.6,9.3,18.1,9.3z M16.5,4.8v0.9h0.7c0.1,0,0.2,0,0.2-0.1
				c0.1-0.1,0.1-0.1,0.1-0.2V5.1c0-0.1,0-0.2-0.1-0.2c-0.1-0.1-0.1-0.1-0.2-0.1H16.5z M16.5,6.9v1h1.1c0.1,0,0.2,0,0.2-0.1
				c0.1-0.1,0.1-0.1,0.1-0.2V7.3c0-0.1,0-0.2-0.1-0.2c0-0.1-0.1-0.1-0.2-0.1H16.5z"/>
		</g>
	</g>
</g>
<g>
	<g transform="translate(46.691203, 27.875353)">
		<g>
			<path class="st9" d="M21.1,7.7c0,0.3,0,0.5-0.1,0.7C21,8.6,20.8,8.8,20.6,9c-0.2,0.1-0.5,0.2-0.8,0.3c-0.3,0.1-0.8,0.1-1.2,0.1
				c-0.5,0-0.9,0-1.3-0.1S16.7,9.1,16.5,9c-0.2-0.2-0.3-0.3-0.4-0.5C16.1,8.2,16,8,16,7.7V4.9c0-0.3,0-0.5,0.1-0.7
				c0.1-0.2,0.2-0.4,0.4-0.5c0.2-0.2,0.5-0.3,0.8-0.4c0.3-0.1,0.8-0.1,1.3-0.1c0.5,0,0.9,0,1.2,0.1c0.3,0.1,0.6,0.2,0.8,0.4
				C20.8,3.9,21,4,21,4.3c0.1,0.2,0.1,0.4,0.1,0.7V7.7z M17.9,7.4c0,0.1,0,0.2,0.1,0.3c0.1,0.1,0.3,0.1,0.6,0.1c0.3,0,0.5,0,0.6-0.1
				c0.1-0.1,0.1-0.2,0.1-0.3V5.2c0-0.1,0-0.2-0.1-0.3c-0.1-0.1-0.3-0.1-0.6-0.1c-0.3,0-0.5,0-0.6,0.1c-0.1,0.1-0.1,0.2-0.1,0.3V7.4z
				"/>
		</g>
	</g>
</g>
<g>
	<g transform="translate(51.234701, 27.875353)">
		<g>
			<path class="st9" d="M22.7,7.7c0,0.3,0,0.5-0.1,0.7c-0.1,0.2-0.2,0.4-0.4,0.5c-0.2,0.1-0.5,0.2-0.8,0.3c-0.3,0.1-0.8,0.1-1.2,0.1
				c-0.5,0-0.9,0-1.3-0.1c-0.3-0.1-0.6-0.2-0.8-0.3c-0.2-0.2-0.3-0.3-0.4-0.5c-0.1-0.2-0.1-0.4-0.1-0.7V4.9c0-0.3,0-0.5,0.1-0.7
				c0.1-0.2,0.2-0.4,0.4-0.5c0.2-0.2,0.5-0.3,0.8-0.4c0.3-0.1,0.8-0.1,1.3-0.1c0.5,0,0.9,0,1.2,0.1c0.3,0.1,0.6,0.2,0.8,0.4
				c0.2,0.1,0.3,0.3,0.4,0.5c0.1,0.2,0.1,0.4,0.1,0.7V7.7z M19.4,7.4c0,0.1,0,0.2,0.1,0.3c0.1,0.1,0.3,0.1,0.6,0.1
				c0.3,0,0.5,0,0.6-0.1c0.1-0.1,0.1-0.2,0.1-0.3V5.2c0-0.1,0-0.2-0.1-0.3c-0.1-0.1-0.3-0.1-0.6-0.1c-0.3,0-0.5,0-0.6,0.1
				c-0.1,0.1-0.1,0.2-0.1,0.3V7.4z"/>
		</g>
	</g>
</g>
<g>
	<g transform="translate(55.778198, 27.875353)">
		<g>
			<path class="st9" d="M20.7,9.3h-1.3c-0.1,0-0.2,0-0.2-0.1c0-0.1-0.1-0.1-0.1-0.2V3.7c0-0.1,0-0.2,0.1-0.2c0.1,0,0.1-0.1,0.2-0.1
				h1.3c0.1,0,0.2,0,0.2,0.1C21,3.5,21,3.6,21,3.7v1.9h0.3l0.8-1.9c0-0.1,0.1-0.2,0.2-0.2c0.1,0,0.2-0.1,0.2-0.1h1.3
				c0.1,0,0.2,0,0.2,0.1c0,0,0,0.1,0,0.2l-0.9,1.9c0.3,0,0.6,0.1,0.8,0.3c0.2,0.2,0.3,0.5,0.3,0.8V9c0,0.1,0,0.2-0.1,0.2
				c0,0-0.1,0.1-0.2,0.1h-1.3c-0.1,0-0.2,0-0.2-0.1c0-0.1-0.1-0.1-0.1-0.2V7.4c0-0.1,0-0.2-0.1-0.2c0-0.1-0.1-0.1-0.2-0.1H21V9
				c0,0.1,0,0.2-0.1,0.2C20.9,9.3,20.8,9.3,20.7,9.3z"/>
		</g>
	</g>
</g>
</svg>
