<svg xmlns="http://www.w3.org/2000/svg" xmlns:xlink="http://www.w3.org/1999/xlink" width="50" zoomAndPan="magnify" viewBox="0 0 37.5 37.499999" height="50" preserveAspectRatio="xMidYMid meet" version="1.0"><defs><g/></defs><g fill="rgb(100%, 0%, 100%)" fill-opacity="1"><g transform="translate(6.645845, 29.980941)"><g><path d="M 7.671875 0 L 3.15625 0 C 2.78125 0 2.503906 -0.0820312 2.328125 -0.25 C 2.160156 -0.425781 2.078125 -0.703125 2.078125 -1.078125 L 2.078125 -20.578125 C 2.078125 -20.953125 2.160156 -21.222656 2.328125 -21.390625 C 2.503906 -21.566406 2.78125 -21.65625 3.15625 -21.65625 L 6.28125 -21.65625 C 6.664062 -21.65625 6.992188 -21.59375 7.265625 -21.46875 C 7.535156 -21.351562 7.800781 -21.144531 8.0625 -20.84375 L 13.890625 -14.171875 L 13.890625 -20.578125 C 13.890625 -20.953125 13.972656 -21.222656 14.140625 -21.390625 C 14.316406 -21.566406 14.597656 -21.65625 14.984375 -21.65625 L 19.484375 -21.65625 C 19.867188 -21.65625 20.144531 -21.566406 20.3125 -21.390625 C 20.488281 -21.222656 20.578125 -20.953125 20.578125 -20.578125 L 20.578125 -1.078125 C 20.578125 -0.703125 20.488281 -0.425781 20.3125 -0.25 C 20.144531 -0.0820312 19.867188 0 19.484375 0 L 14.984375 0 C 14.597656 0 14.316406 -0.0820312 14.140625 -0.25 C 13.972656 -0.425781 13.890625 -0.703125 13.890625 -1.078125 L 13.890625 -4.78125 L 8.75 -11.015625 L 8.75 -1.078125 C 8.75 -0.703125 8.660156 -0.425781 8.484375 -0.25 C 8.316406 -0.0820312 8.046875 0 7.671875 0 Z M 7.671875 0 "/></g></g></g><g fill="rgb(0%, 100%, 100%)" fill-opacity="1"><g transform="translate(8.213529, 28.519051)"><g><path d="M 7.671875 0 L 3.15625 0 C 2.78125 0 2.503906 -0.0820312 2.328125 -0.25 C 2.160156 -0.425781 2.078125 -0.703125 2.078125 -1.078125 L 2.078125 -20.578125 C 2.078125 -20.953125 2.160156 -21.222656 2.328125 -21.390625 C 2.503906 -21.566406 2.78125 -21.65625 3.15625 -21.65625 L 6.28125 -21.65625 C 6.664062 -21.65625 6.992188 -21.59375 7.265625 -21.46875 C 7.535156 -21.351562 7.800781 -21.144531 8.0625 -20.84375 L 13.890625 -14.171875 L 13.890625 -20.578125 C 13.890625 -20.953125 13.972656 -21.222656 14.140625 -21.390625 C 14.316406 -21.566406 14.597656 -21.65625 14.984375 -21.65625 L 19.484375 -21.65625 C 19.867188 -21.65625 20.144531 -21.566406 20.3125 -21.390625 C 20.488281 -21.222656 20.578125 -20.953125 20.578125 -20.578125 L 20.578125 -1.078125 C 20.578125 -0.703125 20.488281 -0.425781 20.3125 -0.25 C 20.144531 -0.0820312 19.867188 0 19.484375 0 L 14.984375 0 C 14.597656 0 14.316406 -0.0820312 14.140625 -0.25 C 13.972656 -0.425781 13.890625 -0.703125 13.890625 -1.078125 L 13.890625 -4.78125 L 8.75 -11.015625 L 8.75 -1.078125 C 8.75 -0.703125 8.660156 -0.425781 8.484375 -0.25 C 8.316406 -0.0820312 8.046875 0 7.671875 0 Z M 7.671875 0 "/></g></g></g><g fill="rgb(100%, 74.119568%, 34.899902%)" fill-opacity="1"><g transform="translate(7.429687, 29.249996)"><g><path d="M 7.671875 0 L 3.15625 0 C 2.78125 0 2.503906 -0.0820312 2.328125 -0.25 C 2.160156 -0.425781 2.078125 -0.703125 2.078125 -1.078125 L 2.078125 -20.578125 C 2.078125 -20.953125 2.160156 -21.222656 2.328125 -21.390625 C 2.503906 -21.566406 2.78125 -21.65625 3.15625 -21.65625 L 6.28125 -21.65625 C 6.664062 -21.65625 6.992188 -21.59375 7.265625 -21.46875 C 7.535156 -21.351562 7.800781 -21.144531 8.0625 -20.84375 L 13.890625 -14.171875 L 13.890625 -20.578125 C 13.890625 -20.953125 13.972656 -21.222656 14.140625 -21.390625 C 14.316406 -21.566406 14.597656 -21.65625 14.984375 -21.65625 L 19.484375 -21.65625 C 19.867188 -21.65625 20.144531 -21.566406 20.3125 -21.390625 C 20.488281 -21.222656 20.578125 -20.953125 20.578125 -20.578125 L 20.578125 -1.078125 C 20.578125 -0.703125 20.488281 -0.425781 20.3125 -0.25 C 20.144531 -0.0820312 19.867188 0 19.484375 0 L 14.984375 0 C 14.597656 0 14.316406 -0.0820312 14.140625 -0.25 C 13.972656 -0.425781 13.890625 -0.703125 13.890625 -1.078125 L 13.890625 -4.78125 L 8.75 -11.015625 L 8.75 -1.078125 C 8.75 -0.703125 8.660156 -0.425781 8.484375 -0.25 C 8.316406 -0.0820312 8.046875 0 7.671875 0 Z M 7.671875 0 "/></g></g></g></svg>