<svg xmlns="http://www.w3.org/2000/svg" xmlns:xlink="http://www.w3.org/1999/xlink" width="125" zoomAndPan="magnify" viewBox="0 0 93.75 56.249996" height="75" preserveAspectRatio="xMidYMid meet" version="1.0"><defs><g/></defs><path fill="rgb(100%, 74.119568%, 34.899902%)" d="M 88.878906 38.546875 C 88.878906 40.019531 87.59375 41.210938 86.226562 41.210938 L 7.597656 41.210938 C 7.210938 41.210938 6.828125 41.128906 6.484375 40.976562 C 6.933594 41.445312 7.554688 41.722656 8.597656 41.722656 L 86.867188 41.722656 C 88.214844 41.722656 89.328125 40.617188 89.328125 39.269531 L 89.328125 17.128906 C 89.328125 16.511719 89.09375 15.957031 88.730469 15.53125 C 88.835938 15.808594 88.878906 16.105469 88.878906 16.40625 L 88.878906 38.546875 " fill-opacity="1" fill-rule="nonzero"/><path fill="rgb(54.899597%, 32.159424%, 100%)" d="M 7.597656 41 L 86.183594 41 C 87.53125 41 88.644531 39.890625 88.644531 38.546875 L 88.644531 16.40625 C 88.644531 15.0625 87.53125 13.953125 86.183594 13.953125 L 7.597656 13.953125 C 6.25 13.953125 5.136719 15.0625 5.136719 16.40625 L 5.136719 38.546875 C 5.136719 39.910156 6.25 41 7.597656 41 " fill-opacity="1" fill-rule="nonzero"/><path fill="rgb(46.669006%, 51.368713%, 55.288696%)" d="M 88.449219 14.996094 C 87.980469 14.25 87.144531 13.738281 86.183594 13.738281 L 7.597656 13.738281 C 6.121094 13.738281 4.921875 14.933594 4.921875 16.40625 L 4.921875 38.546875 C 4.921875 39.421875 5.347656 40.1875 5.992188 40.679688 C 6.460938 41.425781 7.296875 41.9375 8.675781 41.9375 L 86.847656 41.9375 C 88.324219 41.9375 89.519531 40.742188 89.519531 39.269531 L 89.519531 17.128906 C 89.519531 16.253906 89.09375 15.488281 88.449219 14.996094 M 5.136719 38.546875 L 5.136719 16.40625 C 5.136719 15.0625 6.25 13.953125 7.597656 13.953125 L 86.183594 13.953125 C 87.53125 13.953125 88.644531 15.0625 88.644531 16.40625 L 88.644531 38.546875 C 88.644531 39.890625 87.53125 41 86.183594 41 L 7.597656 41 C 6.25 41 5.136719 39.910156 5.136719 38.546875 M 89.328125 39.269531 C 89.328125 40.617188 88.195312 41.722656 86.847656 41.722656 L 8.675781 41.722656 C 7.574219 41.722656 6.953125 41.445312 6.503906 40.976562 C 6.847656 41.128906 7.210938 41.210938 7.617188 41.210938 L 86.203125 41.210938 C 87.679688 41.210938 88.878906 40.019531 88.878906 38.546875 L 88.878906 16.40625 C 88.878906 16.105469 88.816406 15.808594 88.730469 15.53125 C 89.09375 15.957031 89.328125 16.511719 89.328125 17.128906 L 89.328125 39.269531 " fill-opacity="1" fill-rule="nonzero"/><g fill="rgb(100%, 0%, 100%)" fill-opacity="1"><g transform="translate(7.068761, 32.833348)"><g><path d="M 3.546875 0 L 1.46875 0 C 1.289062 0 1.160156 -0.0351562 1.078125 -0.109375 C 1.003906 -0.191406 0.96875 -0.320312 0.96875 -0.5 L 0.96875 -9.53125 C 0.96875 -9.707031 1.003906 -9.832031 1.078125 -9.90625 C 1.160156 -9.988281 1.289062 -10.03125 1.46875 -10.03125 L 2.90625 -10.03125 C 3.082031 -10.03125 3.234375 -10.003906 3.359375 -9.953125 C 3.484375 -9.898438 3.609375 -9.800781 3.734375 -9.65625 L 6.4375 -6.5625 L 6.4375 -9.53125 C 6.4375 -9.707031 6.472656 -9.832031 6.546875 -9.90625 C 6.628906 -9.988281 6.757812 -10.03125 6.9375 -10.03125 L 9.03125 -10.03125 C 9.207031 -10.03125 9.332031 -9.988281 9.40625 -9.90625 C 9.488281 -9.832031 9.53125 -9.707031 9.53125 -9.53125 L 9.53125 -0.5 C 9.53125 -0.320312 9.488281 -0.191406 9.40625 -0.109375 C 9.332031 -0.0351562 9.207031 0 9.03125 0 L 6.9375 0 C 6.757812 0 6.628906 -0.0351562 6.546875 -0.109375 C 6.472656 -0.191406 6.4375 -0.320312 6.4375 -0.5 L 6.4375 -2.21875 L 4.0625 -5.09375 L 4.0625 -0.5 C 4.0625 -0.320312 4.019531 -0.191406 3.9375 -0.109375 C 3.851562 -0.0351562 3.722656 0 3.546875 0 Z M 3.546875 0 "/></g></g></g><g fill="rgb(100%, 0%, 100%)" fill-opacity="1"><g transform="translate(17.559724, 32.833348)"><g><path d="M 7.9375 0 L 1.46875 0 C 1.289062 0 1.160156 -0.0351562 1.078125 -0.109375 C 1.003906 -0.191406 0.96875 -0.320312 0.96875 -0.5 L 0.96875 -9.53125 C 0.96875 -9.707031 1.003906 -9.832031 1.078125 -9.90625 C 1.160156 -9.988281 1.289062 -10.03125 1.46875 -10.03125 L 7.9375 -10.03125 C 8.101562 -10.03125 8.226562 -9.988281 8.3125 -9.90625 C 8.394531 -9.832031 8.4375 -9.707031 8.4375 -9.53125 L 8.4375 -7.90625 C 8.4375 -7.726562 8.394531 -7.597656 8.3125 -7.515625 C 8.226562 -7.441406 8.101562 -7.40625 7.9375 -7.40625 L 4.078125 -7.40625 L 4.078125 -6.328125 L 6.796875 -6.328125 C 6.972656 -6.328125 7.097656 -6.285156 7.171875 -6.203125 C 7.253906 -6.128906 7.296875 -6.003906 7.296875 -5.828125 L 7.296875 -4.328125 C 7.296875 -4.148438 7.253906 -4.019531 7.171875 -3.9375 C 7.097656 -3.863281 6.972656 -3.828125 6.796875 -3.828125 L 4.078125 -3.828125 L 4.078125 -2.640625 L 7.9375 -2.640625 C 8.101562 -2.640625 8.226562 -2.597656 8.3125 -2.515625 C 8.394531 -2.429688 8.4375 -2.300781 8.4375 -2.125 L 8.4375 -0.5 C 8.4375 -0.320312 8.394531 -0.191406 8.3125 -0.109375 C 8.226562 -0.0351562 8.101562 0 7.9375 0 Z M 7.9375 0 "/></g></g></g><g fill="rgb(100%, 0%, 100%)" fill-opacity="1"><g transform="translate(26.671396, 32.833348)"><g><path d="M 7.9375 0 L 1.46875 0 C 1.289062 0 1.160156 -0.0351562 1.078125 -0.109375 C 1.003906 -0.191406 0.96875 -0.320312 0.96875 -0.5 L 0.96875 -9.53125 C 0.96875 -9.707031 1.003906 -9.832031 1.078125 -9.90625 C 1.160156 -9.988281 1.289062 -10.03125 1.46875 -10.03125 L 7.9375 -10.03125 C 8.101562 -10.03125 8.226562 -9.988281 8.3125 -9.90625 C 8.394531 -9.832031 8.4375 -9.707031 8.4375 -9.53125 L 8.4375 -7.90625 C 8.4375 -7.726562 8.394531 -7.597656 8.3125 -7.515625 C 8.226562 -7.441406 8.101562 -7.40625 7.9375 -7.40625 L 4.078125 -7.40625 L 4.078125 -6.328125 L 6.796875 -6.328125 C 6.972656 -6.328125 7.097656 -6.285156 7.171875 -6.203125 C 7.253906 -6.128906 7.296875 -6.003906 7.296875 -5.828125 L 7.296875 -4.328125 C 7.296875 -4.148438 7.253906 -4.019531 7.171875 -3.9375 C 7.097656 -3.863281 6.972656 -3.828125 6.796875 -3.828125 L 4.078125 -3.828125 L 4.078125 -2.640625 L 7.9375 -2.640625 C 8.101562 -2.640625 8.226562 -2.597656 8.3125 -2.515625 C 8.394531 -2.429688 8.4375 -2.300781 8.4375 -2.125 L 8.4375 -0.5 C 8.4375 -0.320312 8.394531 -0.191406 8.3125 -0.109375 C 8.226562 -0.0351562 8.101562 0 7.9375 0 Z M 7.9375 0 "/></g></g></g><g fill="rgb(100%, 0%, 100%)" fill-opacity="1"><g transform="translate(35.783068, 32.833348)"><g><path d="M 5.703125 0 L 3.4375 0 C 3.257812 0 3.128906 -0.0351562 3.046875 -0.109375 C 2.972656 -0.191406 2.9375 -0.320312 2.9375 -0.5 L 2.9375 -7.34375 L 0.890625 -7.34375 C 0.710938 -7.34375 0.582031 -7.378906 0.5 -7.453125 C 0.425781 -7.535156 0.390625 -7.664062 0.390625 -7.84375 L 0.390625 -9.53125 C 0.390625 -9.707031 0.425781 -9.832031 0.5 -9.90625 C 0.582031 -9.988281 0.710938 -10.03125 0.890625 -10.03125 L 8.25 -10.03125 C 8.425781 -10.03125 8.550781 -9.988281 8.625 -9.90625 C 8.707031 -9.832031 8.75 -9.707031 8.75 -9.53125 L 8.75 -7.84375 C 8.75 -7.664062 8.707031 -7.535156 8.625 -7.453125 C 8.550781 -7.378906 8.425781 -7.34375 8.25 -7.34375 L 6.203125 -7.34375 L 6.203125 -0.5 C 6.203125 -0.320312 6.160156 -0.191406 6.078125 -0.109375 C 6.003906 -0.0351562 5.878906 0 5.703125 0 Z M 5.703125 0 "/></g></g></g><g fill="rgb(100%, 0%, 100%)" fill-opacity="1"><g transform="translate(44.922608, 32.833348)"><g><path d="M 6.8125 0 L 1.46875 0 C 1.289062 0 1.160156 -0.0351562 1.078125 -0.109375 C 1.003906 -0.191406 0.96875 -0.320312 0.96875 -0.5 L 0.96875 -9.53125 C 0.96875 -9.707031 1.003906 -9.832031 1.078125 -9.90625 C 1.160156 -9.988281 1.289062 -10.03125 1.46875 -10.03125 L 5.90625 -10.03125 C 6.820312 -10.03125 7.492188 -9.851562 7.921875 -9.5 C 8.359375 -9.15625 8.578125 -8.625 8.578125 -7.90625 L 8.578125 -7.234375 C 8.578125 -6.835938 8.507812 -6.515625 8.375 -6.265625 C 8.25 -6.023438 8.046875 -5.847656 7.765625 -5.734375 C 8.359375 -5.671875 8.796875 -5.460938 9.078125 -5.109375 C 9.367188 -4.753906 9.515625 -4.238281 9.515625 -3.5625 L 9.515625 -2.28125 C 9.515625 -1.5 9.289062 -0.921875 8.84375 -0.546875 C 8.40625 -0.179688 7.726562 0 6.8125 0 Z M 4.09375 -7.671875 L 4.09375 -6.15625 L 5.28125 -6.15625 C 5.457031 -6.15625 5.585938 -6.203125 5.671875 -6.296875 C 5.765625 -6.390625 5.8125 -6.53125 5.8125 -6.71875 L 5.8125 -7.109375 C 5.8125 -7.296875 5.765625 -7.4375 5.671875 -7.53125 C 5.585938 -7.625 5.457031 -7.671875 5.28125 -7.671875 Z M 4.09375 -4.015625 L 4.09375 -2.375 L 5.90625 -2.375 C 6.082031 -2.375 6.210938 -2.414062 6.296875 -2.5 C 6.390625 -2.59375 6.4375 -2.734375 6.4375 -2.921875 L 6.4375 -3.46875 C 6.4375 -3.65625 6.390625 -3.789062 6.296875 -3.875 C 6.210938 -3.96875 6.082031 -4.015625 5.90625 -4.015625 Z M 4.09375 -4.015625 "/></g></g></g><g fill="rgb(100%, 0%, 100%)" fill-opacity="1"><g transform="translate(55.023468, 32.833348)"><g><path d="M 9.46875 -2.640625 C 9.46875 -2.210938 9.40625 -1.820312 9.28125 -1.46875 C 9.15625 -1.125 8.929688 -0.828125 8.609375 -0.578125 C 8.285156 -0.328125 7.84375 -0.132812 7.28125 0 C 6.71875 0.132812 6.003906 0.203125 5.140625 0.203125 C 4.273438 0.203125 3.554688 0.132812 2.984375 0 C 2.421875 -0.132812 1.976562 -0.328125 1.65625 -0.578125 C 1.34375 -0.828125 1.125 -1.125 1 -1.46875 C 0.875 -1.820312 0.8125 -2.210938 0.8125 -2.640625 L 0.8125 -7.390625 C 0.8125 -7.816406 0.875 -8.203125 1 -8.546875 C 1.125 -8.898438 1.34375 -9.203125 1.65625 -9.453125 C 1.976562 -9.703125 2.421875 -9.894531 2.984375 -10.03125 C 3.554688 -10.175781 4.273438 -10.25 5.140625 -10.25 C 6.003906 -10.25 6.71875 -10.175781 7.28125 -10.03125 C 7.84375 -9.894531 8.285156 -9.703125 8.609375 -9.453125 C 8.929688 -9.203125 9.15625 -8.898438 9.28125 -8.546875 C 9.40625 -8.203125 9.46875 -7.816406 9.46875 -7.390625 Z M 3.96875 -3.140625 C 3.96875 -2.953125 4.035156 -2.796875 4.171875 -2.671875 C 4.316406 -2.546875 4.640625 -2.484375 5.140625 -2.484375 C 5.640625 -2.484375 5.957031 -2.546875 6.09375 -2.671875 C 6.238281 -2.796875 6.3125 -2.953125 6.3125 -3.140625 L 6.3125 -6.890625 C 6.3125 -7.066406 6.238281 -7.21875 6.09375 -7.34375 C 5.957031 -7.46875 5.640625 -7.53125 5.140625 -7.53125 C 4.640625 -7.53125 4.316406 -7.46875 4.171875 -7.34375 C 4.035156 -7.21875 3.96875 -7.066406 3.96875 -6.890625 Z M 3.96875 -3.140625 "/></g></g></g><g fill="rgb(100%, 0%, 100%)" fill-opacity="1"><g transform="translate(65.291512, 32.833348)"><g><path d="M 9.46875 -2.640625 C 9.46875 -2.210938 9.40625 -1.820312 9.28125 -1.46875 C 9.15625 -1.125 8.929688 -0.828125 8.609375 -0.578125 C 8.285156 -0.328125 7.84375 -0.132812 7.28125 0 C 6.71875 0.132812 6.003906 0.203125 5.140625 0.203125 C 4.273438 0.203125 3.554688 0.132812 2.984375 0 C 2.421875 -0.132812 1.976562 -0.328125 1.65625 -0.578125 C 1.34375 -0.828125 1.125 -1.125 1 -1.46875 C 0.875 -1.820312 0.8125 -2.210938 0.8125 -2.640625 L 0.8125 -7.390625 C 0.8125 -7.816406 0.875 -8.203125 1 -8.546875 C 1.125 -8.898438 1.34375 -9.203125 1.65625 -9.453125 C 1.976562 -9.703125 2.421875 -9.894531 2.984375 -10.03125 C 3.554688 -10.175781 4.273438 -10.25 5.140625 -10.25 C 6.003906 -10.25 6.71875 -10.175781 7.28125 -10.03125 C 7.84375 -9.894531 8.285156 -9.703125 8.609375 -9.453125 C 8.929688 -9.203125 9.15625 -8.898438 9.28125 -8.546875 C 9.40625 -8.203125 9.46875 -7.816406 9.46875 -7.390625 Z M 3.96875 -3.140625 C 3.96875 -2.953125 4.035156 -2.796875 4.171875 -2.671875 C 4.316406 -2.546875 4.640625 -2.484375 5.140625 -2.484375 C 5.640625 -2.484375 5.957031 -2.546875 6.09375 -2.671875 C 6.238281 -2.796875 6.3125 -2.953125 6.3125 -3.140625 L 6.3125 -6.890625 C 6.3125 -7.066406 6.238281 -7.21875 6.09375 -7.34375 C 5.957031 -7.46875 5.640625 -7.53125 5.140625 -7.53125 C 4.640625 -7.53125 4.316406 -7.46875 4.171875 -7.34375 C 4.035156 -7.21875 3.96875 -7.066406 3.96875 -6.890625 Z M 3.96875 -3.140625 "/></g></g></g><g fill="rgb(100%, 0%, 100%)" fill-opacity="1"><g transform="translate(75.559556, 32.833348)"><g><path d="M 3.625 0 L 1.46875 0 C 1.289062 0 1.160156 -0.0351562 1.078125 -0.109375 C 1.003906 -0.191406 0.96875 -0.320312 0.96875 -0.5 L 0.96875 -9.53125 C 0.96875 -9.707031 1.003906 -9.832031 1.078125 -9.90625 C 1.160156 -9.988281 1.289062 -10.03125 1.46875 -10.03125 L 3.625 -10.03125 C 3.800781 -10.03125 3.925781 -9.988281 4 -9.90625 C 4.082031 -9.832031 4.125 -9.707031 4.125 -9.53125 L 4.125 -6.328125 L 4.6875 -6.328125 L 6.125 -9.578125 C 6.1875 -9.742188 6.269531 -9.859375 6.375 -9.921875 C 6.488281 -9.992188 6.632812 -10.03125 6.8125 -10.03125 L 8.96875 -10.03125 C 9.125 -10.03125 9.226562 -9.988281 9.28125 -9.90625 C 9.332031 -9.832031 9.328125 -9.722656 9.265625 -9.578125 L 7.84375 -6.328125 C 8.363281 -6.296875 8.78125 -6.109375 9.09375 -5.765625 C 9.40625 -5.429688 9.5625 -4.988281 9.5625 -4.4375 L 9.5625 -0.5 C 9.5625 -0.320312 9.519531 -0.191406 9.4375 -0.109375 C 9.363281 -0.0351562 9.238281 0 9.0625 0 L 6.90625 0 C 6.726562 0 6.597656 -0.0351562 6.515625 -0.109375 C 6.441406 -0.191406 6.40625 -0.320312 6.40625 -0.5 L 6.40625 -3.21875 C 6.40625 -3.363281 6.367188 -3.476562 6.296875 -3.5625 C 6.222656 -3.644531 6.113281 -3.6875 5.96875 -3.6875 L 4.125 -3.6875 L 4.125 -0.5 C 4.125 -0.320312 4.082031 -0.191406 4 -0.109375 C 3.925781 -0.0351562 3.800781 0 3.625 0 Z M 3.625 0 "/></g></g></g><g fill="rgb(0%, 100%, 100%)" fill-opacity="1"><g transform="translate(7.795262, 32.155875)"><g><path d="M 3.546875 0 L 1.46875 0 C 1.289062 0 1.160156 -0.0351562 1.078125 -0.109375 C 1.003906 -0.191406 0.96875 -0.320312 0.96875 -0.5 L 0.96875 -9.53125 C 0.96875 -9.707031 1.003906 -9.832031 1.078125 -9.90625 C 1.160156 -9.988281 1.289062 -10.03125 1.46875 -10.03125 L 2.90625 -10.03125 C 3.082031 -10.03125 3.234375 -10.003906 3.359375 -9.953125 C 3.484375 -9.898438 3.609375 -9.800781 3.734375 -9.65625 L 6.4375 -6.5625 L 6.4375 -9.53125 C 6.4375 -9.707031 6.472656 -9.832031 6.546875 -9.90625 C 6.628906 -9.988281 6.757812 -10.03125 6.9375 -10.03125 L 9.03125 -10.03125 C 9.207031 -10.03125 9.332031 -9.988281 9.40625 -9.90625 C 9.488281 -9.832031 9.53125 -9.707031 9.53125 -9.53125 L 9.53125 -0.5 C 9.53125 -0.320312 9.488281 -0.191406 9.40625 -0.109375 C 9.332031 -0.0351562 9.207031 0 9.03125 0 L 6.9375 0 C 6.757812 0 6.628906 -0.0351562 6.546875 -0.109375 C 6.472656 -0.191406 6.4375 -0.320312 6.4375 -0.5 L 6.4375 -2.21875 L 4.0625 -5.09375 L 4.0625 -0.5 C 4.0625 -0.320312 4.019531 -0.191406 3.9375 -0.109375 C 3.851562 -0.0351562 3.722656 0 3.546875 0 Z M 3.546875 0 "/></g></g></g><g fill="rgb(0%, 100%, 100%)" fill-opacity="1"><g transform="translate(18.286225, 32.155875)"><g><path d="M 7.9375 0 L 1.46875 0 C 1.289062 0 1.160156 -0.0351562 1.078125 -0.109375 C 1.003906 -0.191406 0.96875 -0.320312 0.96875 -0.5 L 0.96875 -9.53125 C 0.96875 -9.707031 1.003906 -9.832031 1.078125 -9.90625 C 1.160156 -9.988281 1.289062 -10.03125 1.46875 -10.03125 L 7.9375 -10.03125 C 8.101562 -10.03125 8.226562 -9.988281 8.3125 -9.90625 C 8.394531 -9.832031 8.4375 -9.707031 8.4375 -9.53125 L 8.4375 -7.90625 C 8.4375 -7.726562 8.394531 -7.597656 8.3125 -7.515625 C 8.226562 -7.441406 8.101562 -7.40625 7.9375 -7.40625 L 4.078125 -7.40625 L 4.078125 -6.328125 L 6.796875 -6.328125 C 6.972656 -6.328125 7.097656 -6.285156 7.171875 -6.203125 C 7.253906 -6.128906 7.296875 -6.003906 7.296875 -5.828125 L 7.296875 -4.328125 C 7.296875 -4.148438 7.253906 -4.019531 7.171875 -3.9375 C 7.097656 -3.863281 6.972656 -3.828125 6.796875 -3.828125 L 4.078125 -3.828125 L 4.078125 -2.640625 L 7.9375 -2.640625 C 8.101562 -2.640625 8.226562 -2.597656 8.3125 -2.515625 C 8.394531 -2.429688 8.4375 -2.300781 8.4375 -2.125 L 8.4375 -0.5 C 8.4375 -0.320312 8.394531 -0.191406 8.3125 -0.109375 C 8.226562 -0.0351562 8.101562 0 7.9375 0 Z M 7.9375 0 "/></g></g></g><g fill="rgb(0%, 100%, 100%)" fill-opacity="1"><g transform="translate(27.397897, 32.155875)"><g><path d="M 7.9375 0 L 1.46875 0 C 1.289062 0 1.160156 -0.0351562 1.078125 -0.109375 C 1.003906 -0.191406 0.96875 -0.320312 0.96875 -0.5 L 0.96875 -9.53125 C 0.96875 -9.707031 1.003906 -9.832031 1.078125 -9.90625 C 1.160156 -9.988281 1.289062 -10.03125 1.46875 -10.03125 L 7.9375 -10.03125 C 8.101562 -10.03125 8.226562 -9.988281 8.3125 -9.90625 C 8.394531 -9.832031 8.4375 -9.707031 8.4375 -9.53125 L 8.4375 -7.90625 C 8.4375 -7.726562 8.394531 -7.597656 8.3125 -7.515625 C 8.226562 -7.441406 8.101562 -7.40625 7.9375 -7.40625 L 4.078125 -7.40625 L 4.078125 -6.328125 L 6.796875 -6.328125 C 6.972656 -6.328125 7.097656 -6.285156 7.171875 -6.203125 C 7.253906 -6.128906 7.296875 -6.003906 7.296875 -5.828125 L 7.296875 -4.328125 C 7.296875 -4.148438 7.253906 -4.019531 7.171875 -3.9375 C 7.097656 -3.863281 6.972656 -3.828125 6.796875 -3.828125 L 4.078125 -3.828125 L 4.078125 -2.640625 L 7.9375 -2.640625 C 8.101562 -2.640625 8.226562 -2.597656 8.3125 -2.515625 C 8.394531 -2.429688 8.4375 -2.300781 8.4375 -2.125 L 8.4375 -0.5 C 8.4375 -0.320312 8.394531 -0.191406 8.3125 -0.109375 C 8.226562 -0.0351562 8.101562 0 7.9375 0 Z M 7.9375 0 "/></g></g></g><g fill="rgb(0%, 100%, 100%)" fill-opacity="1"><g transform="translate(36.509569, 32.155875)"><g><path d="M 5.703125 0 L 3.4375 0 C 3.257812 0 3.128906 -0.0351562 3.046875 -0.109375 C 2.972656 -0.191406 2.9375 -0.320312 2.9375 -0.5 L 2.9375 -7.34375 L 0.890625 -7.34375 C 0.710938 -7.34375 0.582031 -7.378906 0.5 -7.453125 C 0.425781 -7.535156 0.390625 -7.664062 0.390625 -7.84375 L 0.390625 -9.53125 C 0.390625 -9.707031 0.425781 -9.832031 0.5 -9.90625 C 0.582031 -9.988281 0.710938 -10.03125 0.890625 -10.03125 L 8.25 -10.03125 C 8.425781 -10.03125 8.550781 -9.988281 8.625 -9.90625 C 8.707031 -9.832031 8.75 -9.707031 8.75 -9.53125 L 8.75 -7.84375 C 8.75 -7.664062 8.707031 -7.535156 8.625 -7.453125 C 8.550781 -7.378906 8.425781 -7.34375 8.25 -7.34375 L 6.203125 -7.34375 L 6.203125 -0.5 C 6.203125 -0.320312 6.160156 -0.191406 6.078125 -0.109375 C 6.003906 -0.0351562 5.878906 0 5.703125 0 Z M 5.703125 0 "/></g></g></g><g fill="rgb(0%, 100%, 100%)" fill-opacity="1"><g transform="translate(45.649109, 32.155875)"><g><path d="M 6.8125 0 L 1.46875 0 C 1.289062 0 1.160156 -0.0351562 1.078125 -0.109375 C 1.003906 -0.191406 0.96875 -0.320312 0.96875 -0.5 L 0.96875 -9.53125 C 0.96875 -9.707031 1.003906 -9.832031 1.078125 -9.90625 C 1.160156 -9.988281 1.289062 -10.03125 1.46875 -10.03125 L 5.90625 -10.03125 C 6.820312 -10.03125 7.492188 -9.851562 7.921875 -9.5 C 8.359375 -9.15625 8.578125 -8.625 8.578125 -7.90625 L 8.578125 -7.234375 C 8.578125 -6.835938 8.507812 -6.515625 8.375 -6.265625 C 8.25 -6.023438 8.046875 -5.847656 7.765625 -5.734375 C 8.359375 -5.671875 8.796875 -5.460938 9.078125 -5.109375 C 9.367188 -4.753906 9.515625 -4.238281 9.515625 -3.5625 L 9.515625 -2.28125 C 9.515625 -1.5 9.289062 -0.921875 8.84375 -0.546875 C 8.40625 -0.179688 7.726562 0 6.8125 0 Z M 4.09375 -7.671875 L 4.09375 -6.15625 L 5.28125 -6.15625 C 5.457031 -6.15625 5.585938 -6.203125 5.671875 -6.296875 C 5.765625 -6.390625 5.8125 -6.53125 5.8125 -6.71875 L 5.8125 -7.109375 C 5.8125 -7.296875 5.765625 -7.4375 5.671875 -7.53125 C 5.585938 -7.625 5.457031 -7.671875 5.28125 -7.671875 Z M 4.09375 -4.015625 L 4.09375 -2.375 L 5.90625 -2.375 C 6.082031 -2.375 6.210938 -2.414062 6.296875 -2.5 C 6.390625 -2.59375 6.4375 -2.734375 6.4375 -2.921875 L 6.4375 -3.46875 C 6.4375 -3.65625 6.390625 -3.789062 6.296875 -3.875 C 6.210938 -3.96875 6.082031 -4.015625 5.90625 -4.015625 Z M 4.09375 -4.015625 "/></g></g></g><g fill="rgb(0%, 100%, 100%)" fill-opacity="1"><g transform="translate(55.749969, 32.155875)"><g><path d="M 9.46875 -2.640625 C 9.46875 -2.210938 9.40625 -1.820312 9.28125 -1.46875 C 9.15625 -1.125 8.929688 -0.828125 8.609375 -0.578125 C 8.285156 -0.328125 7.84375 -0.132812 7.28125 0 C 6.71875 0.132812 6.003906 0.203125 5.140625 0.203125 C 4.273438 0.203125 3.554688 0.132812 2.984375 0 C 2.421875 -0.132812 1.976562 -0.328125 1.65625 -0.578125 C 1.34375 -0.828125 1.125 -1.125 1 -1.46875 C 0.875 -1.820312 0.8125 -2.210938 0.8125 -2.640625 L 0.8125 -7.390625 C 0.8125 -7.816406 0.875 -8.203125 1 -8.546875 C 1.125 -8.898438 1.34375 -9.203125 1.65625 -9.453125 C 1.976562 -9.703125 2.421875 -9.894531 2.984375 -10.03125 C 3.554688 -10.175781 4.273438 -10.25 5.140625 -10.25 C 6.003906 -10.25 6.71875 -10.175781 7.28125 -10.03125 C 7.84375 -9.894531 8.285156 -9.703125 8.609375 -9.453125 C 8.929688 -9.203125 9.15625 -8.898438 9.28125 -8.546875 C 9.40625 -8.203125 9.46875 -7.816406 9.46875 -7.390625 Z M 3.96875 -3.140625 C 3.96875 -2.953125 4.035156 -2.796875 4.171875 -2.671875 C 4.316406 -2.546875 4.640625 -2.484375 5.140625 -2.484375 C 5.640625 -2.484375 5.957031 -2.546875 6.09375 -2.671875 C 6.238281 -2.796875 6.3125 -2.953125 6.3125 -3.140625 L 6.3125 -6.890625 C 6.3125 -7.066406 6.238281 -7.21875 6.09375 -7.34375 C 5.957031 -7.46875 5.640625 -7.53125 5.140625 -7.53125 C 4.640625 -7.53125 4.316406 -7.46875 4.171875 -7.34375 C 4.035156 -7.21875 3.96875 -7.066406 3.96875 -6.890625 Z M 3.96875 -3.140625 "/></g></g></g><g fill="rgb(0%, 100%, 100%)" fill-opacity="1"><g transform="translate(66.018013, 32.155875)"><g><path d="M 9.46875 -2.640625 C 9.46875 -2.210938 9.40625 -1.820312 9.28125 -1.46875 C 9.15625 -1.125 8.929688 -0.828125 8.609375 -0.578125 C 8.285156 -0.328125 7.84375 -0.132812 7.28125 0 C 6.71875 0.132812 6.003906 0.203125 5.140625 0.203125 C 4.273438 0.203125 3.554688 0.132812 2.984375 0 C 2.421875 -0.132812 1.976562 -0.328125 1.65625 -0.578125 C 1.34375 -0.828125 1.125 -1.125 1 -1.46875 C 0.875 -1.820312 0.8125 -2.210938 0.8125 -2.640625 L 0.8125 -7.390625 C 0.8125 -7.816406 0.875 -8.203125 1 -8.546875 C 1.125 -8.898438 1.34375 -9.203125 1.65625 -9.453125 C 1.976562 -9.703125 2.421875 -9.894531 2.984375 -10.03125 C 3.554688 -10.175781 4.273438 -10.25 5.140625 -10.25 C 6.003906 -10.25 6.71875 -10.175781 7.28125 -10.03125 C 7.84375 -9.894531 8.285156 -9.703125 8.609375 -9.453125 C 8.929688 -9.203125 9.15625 -8.898438 9.28125 -8.546875 C 9.40625 -8.203125 9.46875 -7.816406 9.46875 -7.390625 Z M 3.96875 -3.140625 C 3.96875 -2.953125 4.035156 -2.796875 4.171875 -2.671875 C 4.316406 -2.546875 4.640625 -2.484375 5.140625 -2.484375 C 5.640625 -2.484375 5.957031 -2.546875 6.09375 -2.671875 C 6.238281 -2.796875 6.3125 -2.953125 6.3125 -3.140625 L 6.3125 -6.890625 C 6.3125 -7.066406 6.238281 -7.21875 6.09375 -7.34375 C 5.957031 -7.46875 5.640625 -7.53125 5.140625 -7.53125 C 4.640625 -7.53125 4.316406 -7.46875 4.171875 -7.34375 C 4.035156 -7.21875 3.96875 -7.066406 3.96875 -6.890625 Z M 3.96875 -3.140625 "/></g></g></g><g fill="rgb(0%, 100%, 100%)" fill-opacity="1"><g transform="translate(76.286056, 32.155875)"><g><path d="M 3.625 0 L 1.46875 0 C 1.289062 0 1.160156 -0.0351562 1.078125 -0.109375 C 1.003906 -0.191406 0.96875 -0.320312 0.96875 -0.5 L 0.96875 -9.53125 C 0.96875 -9.707031 1.003906 -9.832031 1.078125 -9.90625 C 1.160156 -9.988281 1.289062 -10.03125 1.46875 -10.03125 L 3.625 -10.03125 C 3.800781 -10.03125 3.925781 -9.988281 4 -9.90625 C 4.082031 -9.832031 4.125 -9.707031 4.125 -9.53125 L 4.125 -6.328125 L 4.6875 -6.328125 L 6.125 -9.578125 C 6.1875 -9.742188 6.269531 -9.859375 6.375 -9.921875 C 6.488281 -9.992188 6.632812 -10.03125 6.8125 -10.03125 L 8.96875 -10.03125 C 9.125 -10.03125 9.226562 -9.988281 9.28125 -9.90625 C 9.332031 -9.832031 9.328125 -9.722656 9.265625 -9.578125 L 7.84375 -6.328125 C 8.363281 -6.296875 8.78125 -6.109375 9.09375 -5.765625 C 9.40625 -5.429688 9.5625 -4.988281 9.5625 -4.4375 L 9.5625 -0.5 C 9.5625 -0.320312 9.519531 -0.191406 9.4375 -0.109375 C 9.363281 -0.0351562 9.238281 0 9.0625 0 L 6.90625 0 C 6.726562 0 6.597656 -0.0351562 6.515625 -0.109375 C 6.441406 -0.191406 6.40625 -0.320312 6.40625 -0.5 L 6.40625 -3.21875 C 6.40625 -3.363281 6.367188 -3.476562 6.296875 -3.5625 C 6.222656 -3.644531 6.113281 -3.6875 5.96875 -3.6875 L 4.125 -3.6875 L 4.125 -0.5 C 4.125 -0.320312 4.082031 -0.191406 4 -0.109375 C 3.925781 -0.0351562 3.800781 0 3.625 0 Z M 3.625 0 "/></g></g></g><g fill="rgb(100%, 74.119568%, 34.899902%)" fill-opacity="1"><g transform="translate(7.432011, 32.494612)"><g><path d="M 3.546875 0 L 1.46875 0 C 1.289062 0 1.160156 -0.0351562 1.078125 -0.109375 C 1.003906 -0.191406 0.96875 -0.320312 0.96875 -0.5 L 0.96875 -9.53125 C 0.96875 -9.707031 1.003906 -9.832031 1.078125 -9.90625 C 1.160156 -9.988281 1.289062 -10.03125 1.46875 -10.03125 L 2.90625 -10.03125 C 3.082031 -10.03125 3.234375 -10.003906 3.359375 -9.953125 C 3.484375 -9.898438 3.609375 -9.800781 3.734375 -9.65625 L 6.4375 -6.5625 L 6.4375 -9.53125 C 6.4375 -9.707031 6.472656 -9.832031 6.546875 -9.90625 C 6.628906 -9.988281 6.757812 -10.03125 6.9375 -10.03125 L 9.03125 -10.03125 C 9.207031 -10.03125 9.332031 -9.988281 9.40625 -9.90625 C 9.488281 -9.832031 9.53125 -9.707031 9.53125 -9.53125 L 9.53125 -0.5 C 9.53125 -0.320312 9.488281 -0.191406 9.40625 -0.109375 C 9.332031 -0.0351562 9.207031 0 9.03125 0 L 6.9375 0 C 6.757812 0 6.628906 -0.0351562 6.546875 -0.109375 C 6.472656 -0.191406 6.4375 -0.320312 6.4375 -0.5 L 6.4375 -2.21875 L 4.0625 -5.09375 L 4.0625 -0.5 C 4.0625 -0.320312 4.019531 -0.191406 3.9375 -0.109375 C 3.851562 -0.0351562 3.722656 0 3.546875 0 Z M 3.546875 0 "/></g></g></g><g fill="rgb(100%, 74.119568%, 34.899902%)" fill-opacity="1"><g transform="translate(17.922974, 32.494612)"><g><path d="M 7.9375 0 L 1.46875 0 C 1.289062 0 1.160156 -0.0351562 1.078125 -0.109375 C 1.003906 -0.191406 0.96875 -0.320312 0.96875 -0.5 L 0.96875 -9.53125 C 0.96875 -9.707031 1.003906 -9.832031 1.078125 -9.90625 C 1.160156 -9.988281 1.289062 -10.03125 1.46875 -10.03125 L 7.9375 -10.03125 C 8.101562 -10.03125 8.226562 -9.988281 8.3125 -9.90625 C 8.394531 -9.832031 8.4375 -9.707031 8.4375 -9.53125 L 8.4375 -7.90625 C 8.4375 -7.726562 8.394531 -7.597656 8.3125 -7.515625 C 8.226562 -7.441406 8.101562 -7.40625 7.9375 -7.40625 L 4.078125 -7.40625 L 4.078125 -6.328125 L 6.796875 -6.328125 C 6.972656 -6.328125 7.097656 -6.285156 7.171875 -6.203125 C 7.253906 -6.128906 7.296875 -6.003906 7.296875 -5.828125 L 7.296875 -4.328125 C 7.296875 -4.148438 7.253906 -4.019531 7.171875 -3.9375 C 7.097656 -3.863281 6.972656 -3.828125 6.796875 -3.828125 L 4.078125 -3.828125 L 4.078125 -2.640625 L 7.9375 -2.640625 C 8.101562 -2.640625 8.226562 -2.597656 8.3125 -2.515625 C 8.394531 -2.429688 8.4375 -2.300781 8.4375 -2.125 L 8.4375 -0.5 C 8.4375 -0.320312 8.394531 -0.191406 8.3125 -0.109375 C 8.226562 -0.0351562 8.101562 0 7.9375 0 Z M 7.9375 0 "/></g></g></g><g fill="rgb(100%, 74.119568%, 34.899902%)" fill-opacity="1"><g transform="translate(27.034646, 32.494612)"><g><path d="M 7.9375 0 L 1.46875 0 C 1.289062 0 1.160156 -0.0351562 1.078125 -0.109375 C 1.003906 -0.191406 0.96875 -0.320312 0.96875 -0.5 L 0.96875 -9.53125 C 0.96875 -9.707031 1.003906 -9.832031 1.078125 -9.90625 C 1.160156 -9.988281 1.289062 -10.03125 1.46875 -10.03125 L 7.9375 -10.03125 C 8.101562 -10.03125 8.226562 -9.988281 8.3125 -9.90625 C 8.394531 -9.832031 8.4375 -9.707031 8.4375 -9.53125 L 8.4375 -7.90625 C 8.4375 -7.726562 8.394531 -7.597656 8.3125 -7.515625 C 8.226562 -7.441406 8.101562 -7.40625 7.9375 -7.40625 L 4.078125 -7.40625 L 4.078125 -6.328125 L 6.796875 -6.328125 C 6.972656 -6.328125 7.097656 -6.285156 7.171875 -6.203125 C 7.253906 -6.128906 7.296875 -6.003906 7.296875 -5.828125 L 7.296875 -4.328125 C 7.296875 -4.148438 7.253906 -4.019531 7.171875 -3.9375 C 7.097656 -3.863281 6.972656 -3.828125 6.796875 -3.828125 L 4.078125 -3.828125 L 4.078125 -2.640625 L 7.9375 -2.640625 C 8.101562 -2.640625 8.226562 -2.597656 8.3125 -2.515625 C 8.394531 -2.429688 8.4375 -2.300781 8.4375 -2.125 L 8.4375 -0.5 C 8.4375 -0.320312 8.394531 -0.191406 8.3125 -0.109375 C 8.226562 -0.0351562 8.101562 0 7.9375 0 Z M 7.9375 0 "/></g></g></g><g fill="rgb(100%, 74.119568%, 34.899902%)" fill-opacity="1"><g transform="translate(36.146318, 32.494612)"><g><path d="M 5.703125 0 L 3.4375 0 C 3.257812 0 3.128906 -0.0351562 3.046875 -0.109375 C 2.972656 -0.191406 2.9375 -0.320312 2.9375 -0.5 L 2.9375 -7.34375 L 0.890625 -7.34375 C 0.710938 -7.34375 0.582031 -7.378906 0.5 -7.453125 C 0.425781 -7.535156 0.390625 -7.664062 0.390625 -7.84375 L 0.390625 -9.53125 C 0.390625 -9.707031 0.425781 -9.832031 0.5 -9.90625 C 0.582031 -9.988281 0.710938 -10.03125 0.890625 -10.03125 L 8.25 -10.03125 C 8.425781 -10.03125 8.550781 -9.988281 8.625 -9.90625 C 8.707031 -9.832031 8.75 -9.707031 8.75 -9.53125 L 8.75 -7.84375 C 8.75 -7.664062 8.707031 -7.535156 8.625 -7.453125 C 8.550781 -7.378906 8.425781 -7.34375 8.25 -7.34375 L 6.203125 -7.34375 L 6.203125 -0.5 C 6.203125 -0.320312 6.160156 -0.191406 6.078125 -0.109375 C 6.003906 -0.0351562 5.878906 0 5.703125 0 Z M 5.703125 0 "/></g></g></g><g fill="rgb(100%, 74.119568%, 34.899902%)" fill-opacity="1"><g transform="translate(45.285858, 32.494612)"><g><path d="M 6.8125 0 L 1.46875 0 C 1.289062 0 1.160156 -0.0351562 1.078125 -0.109375 C 1.003906 -0.191406 0.96875 -0.320312 0.96875 -0.5 L 0.96875 -9.53125 C 0.96875 -9.707031 1.003906 -9.832031 1.078125 -9.90625 C 1.160156 -9.988281 1.289062 -10.03125 1.46875 -10.03125 L 5.90625 -10.03125 C 6.820312 -10.03125 7.492188 -9.851562 7.921875 -9.5 C 8.359375 -9.15625 8.578125 -8.625 8.578125 -7.90625 L 8.578125 -7.234375 C 8.578125 -6.835938 8.507812 -6.515625 8.375 -6.265625 C 8.25 -6.023438 8.046875 -5.847656 7.765625 -5.734375 C 8.359375 -5.671875 8.796875 -5.460938 9.078125 -5.109375 C 9.367188 -4.753906 9.515625 -4.238281 9.515625 -3.5625 L 9.515625 -2.28125 C 9.515625 -1.5 9.289062 -0.921875 8.84375 -0.546875 C 8.40625 -0.179688 7.726562 0 6.8125 0 Z M 4.09375 -7.671875 L 4.09375 -6.15625 L 5.28125 -6.15625 C 5.457031 -6.15625 5.585938 -6.203125 5.671875 -6.296875 C 5.765625 -6.390625 5.8125 -6.53125 5.8125 -6.71875 L 5.8125 -7.109375 C 5.8125 -7.296875 5.765625 -7.4375 5.671875 -7.53125 C 5.585938 -7.625 5.457031 -7.671875 5.28125 -7.671875 Z M 4.09375 -4.015625 L 4.09375 -2.375 L 5.90625 -2.375 C 6.082031 -2.375 6.210938 -2.414062 6.296875 -2.5 C 6.390625 -2.59375 6.4375 -2.734375 6.4375 -2.921875 L 6.4375 -3.46875 C 6.4375 -3.65625 6.390625 -3.789062 6.296875 -3.875 C 6.210938 -3.96875 6.082031 -4.015625 5.90625 -4.015625 Z M 4.09375 -4.015625 "/></g></g></g><g fill="rgb(100%, 74.119568%, 34.899902%)" fill-opacity="1"><g transform="translate(55.386718, 32.494612)"><g><path d="M 9.46875 -2.640625 C 9.46875 -2.210938 9.40625 -1.820312 9.28125 -1.46875 C 9.15625 -1.125 8.929688 -0.828125 8.609375 -0.578125 C 8.285156 -0.328125 7.84375 -0.132812 7.28125 0 C 6.71875 0.132812 6.003906 0.203125 5.140625 0.203125 C 4.273438 0.203125 3.554688 0.132812 2.984375 0 C 2.421875 -0.132812 1.976562 -0.328125 1.65625 -0.578125 C 1.34375 -0.828125 1.125 -1.125 1 -1.46875 C 0.875 -1.820312 0.8125 -2.210938 0.8125 -2.640625 L 0.8125 -7.390625 C 0.8125 -7.816406 0.875 -8.203125 1 -8.546875 C 1.125 -8.898438 1.34375 -9.203125 1.65625 -9.453125 C 1.976562 -9.703125 2.421875 -9.894531 2.984375 -10.03125 C 3.554688 -10.175781 4.273438 -10.25 5.140625 -10.25 C 6.003906 -10.25 6.71875 -10.175781 7.28125 -10.03125 C 7.84375 -9.894531 8.285156 -9.703125 8.609375 -9.453125 C 8.929688 -9.203125 9.15625 -8.898438 9.28125 -8.546875 C 9.40625 -8.203125 9.46875 -7.816406 9.46875 -7.390625 Z M 3.96875 -3.140625 C 3.96875 -2.953125 4.035156 -2.796875 4.171875 -2.671875 C 4.316406 -2.546875 4.640625 -2.484375 5.140625 -2.484375 C 5.640625 -2.484375 5.957031 -2.546875 6.09375 -2.671875 C 6.238281 -2.796875 6.3125 -2.953125 6.3125 -3.140625 L 6.3125 -6.890625 C 6.3125 -7.066406 6.238281 -7.21875 6.09375 -7.34375 C 5.957031 -7.46875 5.640625 -7.53125 5.140625 -7.53125 C 4.640625 -7.53125 4.316406 -7.46875 4.171875 -7.34375 C 4.035156 -7.21875 3.96875 -7.066406 3.96875 -6.890625 Z M 3.96875 -3.140625 "/></g></g></g><g fill="rgb(100%, 74.119568%, 34.899902%)" fill-opacity="1"><g transform="translate(65.654762, 32.494612)"><g><path d="M 9.46875 -2.640625 C 9.46875 -2.210938 9.40625 -1.820312 9.28125 -1.46875 C 9.15625 -1.125 8.929688 -0.828125 8.609375 -0.578125 C 8.285156 -0.328125 7.84375 -0.132812 7.28125 0 C 6.71875 0.132812 6.003906 0.203125 5.140625 0.203125 C 4.273438 0.203125 3.554688 0.132812 2.984375 0 C 2.421875 -0.132812 1.976562 -0.328125 1.65625 -0.578125 C 1.34375 -0.828125 1.125 -1.125 1 -1.46875 C 0.875 -1.820312 0.8125 -2.210938 0.8125 -2.640625 L 0.8125 -7.390625 C 0.8125 -7.816406 0.875 -8.203125 1 -8.546875 C 1.125 -8.898438 1.34375 -9.203125 1.65625 -9.453125 C 1.976562 -9.703125 2.421875 -9.894531 2.984375 -10.03125 C 3.554688 -10.175781 4.273438 -10.25 5.140625 -10.25 C 6.003906 -10.25 6.71875 -10.175781 7.28125 -10.03125 C 7.84375 -9.894531 8.285156 -9.703125 8.609375 -9.453125 C 8.929688 -9.203125 9.15625 -8.898438 9.28125 -8.546875 C 9.40625 -8.203125 9.46875 -7.816406 9.46875 -7.390625 Z M 3.96875 -3.140625 C 3.96875 -2.953125 4.035156 -2.796875 4.171875 -2.671875 C 4.316406 -2.546875 4.640625 -2.484375 5.140625 -2.484375 C 5.640625 -2.484375 5.957031 -2.546875 6.09375 -2.671875 C 6.238281 -2.796875 6.3125 -2.953125 6.3125 -3.140625 L 6.3125 -6.890625 C 6.3125 -7.066406 6.238281 -7.21875 6.09375 -7.34375 C 5.957031 -7.46875 5.640625 -7.53125 5.140625 -7.53125 C 4.640625 -7.53125 4.316406 -7.46875 4.171875 -7.34375 C 4.035156 -7.21875 3.96875 -7.066406 3.96875 -6.890625 Z M 3.96875 -3.140625 "/></g></g></g><g fill="rgb(100%, 74.119568%, 34.899902%)" fill-opacity="1"><g transform="translate(75.922806, 32.494612)"><g><path d="M 3.625 0 L 1.46875 0 C 1.289062 0 1.160156 -0.0351562 1.078125 -0.109375 C 1.003906 -0.191406 0.96875 -0.320312 0.96875 -0.5 L 0.96875 -9.53125 C 0.96875 -9.707031 1.003906 -9.832031 1.078125 -9.90625 C 1.160156 -9.988281 1.289062 -10.03125 1.46875 -10.03125 L 3.625 -10.03125 C 3.800781 -10.03125 3.925781 -9.988281 4 -9.90625 C 4.082031 -9.832031 4.125 -9.707031 4.125 -9.53125 L 4.125 -6.328125 L 4.6875 -6.328125 L 6.125 -9.578125 C 6.1875 -9.742188 6.269531 -9.859375 6.375 -9.921875 C 6.488281 -9.992188 6.632812 -10.03125 6.8125 -10.03125 L 8.96875 -10.03125 C 9.125 -10.03125 9.226562 -9.988281 9.28125 -9.90625 C 9.332031 -9.832031 9.328125 -9.722656 9.265625 -9.578125 L 7.84375 -6.328125 C 8.363281 -6.296875 8.78125 -6.109375 9.09375 -5.765625 C 9.40625 -5.429688 9.5625 -4.988281 9.5625 -4.4375 L 9.5625 -0.5 C 9.5625 -0.320312 9.519531 -0.191406 9.4375 -0.109375 C 9.363281 -0.0351562 9.238281 0 9.0625 0 L 6.90625 0 C 6.726562 0 6.597656 -0.0351562 6.515625 -0.109375 C 6.441406 -0.191406 6.40625 -0.320312 6.40625 -0.5 L 6.40625 -3.21875 C 6.40625 -3.363281 6.367188 -3.476562 6.296875 -3.5625 C 6.222656 -3.644531 6.113281 -3.6875 5.96875 -3.6875 L 4.125 -3.6875 L 4.125 -0.5 C 4.125 -0.320312 4.082031 -0.191406 4 -0.109375 C 3.925781 -0.0351562 3.800781 0 3.625 0 Z M 3.625 0 "/></g></g></g></svg>